<?xml version="1.0" encoding="UTF-8"?>
<!DOCTYPE svg PUBLIC "-//W3C//DTD SVG 1.1//EN" "http://www.w3.org/Graphics/SVG/1.1/DTD/svg11.dtd">
<!-- Creator: CorelDRAW X7 -->
<svg xmlns="http://www.w3.org/2000/svg" xml:space="preserve" width="179.03mm" height="246.939mm" version="1.1" style="shape-rendering:geometricPrecision; text-rendering:geometricPrecision; image-rendering:optimizeQuality; fill-rule:evenodd; clip-rule:evenodd"
viewBox="0 0 17903 24694"
 xmlns:xlink="http://www.w3.org/1999/xlink">
 <defs>
  <style type="text/css">
   <![CDATA[
    .str0 {stroke:#38478C;stroke-width:101.22}
    .fil0 {fill:#FEFEFE}
    .fil2 {fill:#1F65AA}
    .fil3 {fill:#38478C}
    .fil4 {fill:#008DD2}
    .fil6 {fill:#393185}
    .fil5 {fill:#FEFEFE;fill-rule:nonzero}
    .fil1 {fill:#1963AC;fill-rule:nonzero}
    .fil7 {fill:#38478C;fill-rule:nonzero}
   ]]>
  </style>
   <clipPath id="id0">
    <path d="M14079 17597c-1215,-1801 -1954,-3125 -2336,-5360 -196,-1147 -663,-4673 -1929,-4894 -794,-155 -1514,51 -2314,109 -248,18 -483,-23 -705,-134 -875,-439 -1624,-2009 -2258,-2798 875,772 1105,1551 1830,1971 1069,618 2472,287 3645,530 1380,286 1925,1755 2174,3302 471,2928 156,4475 1893,7274z"/>
   </clipPath>
 </defs>
 <g id="Слой_x0020_1">
  <metadata id="CorelCorpID_0Corel-Layer"/>
  <g>
   <polygon class="fil0" points="0,0 17903,0 17903,24694 0,24694 "/>
   <path id="1" class="fil1" d="M17903 177l-17903 0 0 -354 17903 0 179 177 -179 177zm0 -354l179 0 0 177 -179 -177zm-179 24871l0 -24694 358 0 0 24694 -179 177 -179 -177zm358 0l0 177 -179 0 179 -177zm-18082 -177l17903 0 0 354 -17903 0 -179 -177 179 -177zm0 354l-179 0 0 -177 179 177zm179 -24871l0 24694 -358 0 0 -24694 179 -177 179 177zm-358 0l0 -177 179 0 -179 177z"/>
  </g>
  <path class="fil2" d="M14733 20982l-53 -6 -2 2 -1 -2 -40 -5 -466 -41 -45 -4 -159 120c-110,-6 -225,-5 -359,-17 -10,-1 -21,-2 -32,-2l-141 -131 -294 -107c-102,19 -188,36 -236,42 -273,35 -118,163 -387,128l-13 -2 -335 -199 -26 -10 -381 271c-191,-16 -120,-47 -322,-64 -126,-11 -182,37 -287,81l-39 -24 -105 14 -276 7 -290 -28 -156 -15 -30 -18 -48 2 -111 5 -112 6 -147 6 -711 33 -42 56 -20 -15c-28,-5 -58,-10 -90,-16 -56,-10 -104,-12 -149,-8l-2 -2 -683 31 -50 57c-164,-47 -270,-114 -462,-78 -32,6 -62,11 -90,16 -36,26 -68,48 -95,67 -35,8 -72,18 -112,30l-3 1 -147 -100 -23 29c-34,-18 -89,-25 -180,-10l-88 -94 -310 -2 -124 44 -254 -39 -52 61c-36,7 -268,-23 -295,-54 -102,34 -145,2 -159,-106l-1 -1 -176 101c-49,-96 -192,-53 -302,-38 -16,-1 -34,-1 -53,1l-20 1c-35,-4 -59,-20 -64,-59l-15 7 -140 -67 -38 177c-71,9 -190,14 -414,14l-366 -63 -258 -107 -103 20 -62 177c-120,-45 -236,-80 -371,-68 -29,3 -57,5 -85,6l-515 -231 -33 11 -1 -18 -120 73 -31 -4 -412 -30 -16 -2 -36 -4 145 -3c-66,-28 -295,-81 -308,-184 -27,-214 84,-262 30,-548 -53,-285 -210,-476 -185,-738 24,-262 -3,-452 73,-667 76,-214 125,-358 125,-477 -1,-119 -55,-500 -5,-715 43,-184 33,93 50,-476 3,-93 -22,-213 -16,-357 2,-38 6,-73 10,-106 -20,-25 -43,-31 -69,-10 -115,-158 102,-325 -91,-299l0 -79c5,-715 -36,-334 -60,-620 -24,-285 178,-208 28,-1160 -64,-410 -25,-555 27,-630 -42,-233 49,-244 104,-263 -6,-30 -15,-66 -27,-107 -12,-41 -21,-78 -30,-112 -18,-28 -41,-60 -67,-96 -4,-28 -10,-58 -16,-90 -49,-262 94,-364 116,-673 -22,-309 -165,-410 -116,-672 6,-33 12,-63 16,-91 26,-36 49,-67 67,-95 9,-34 18,-72 30,-112 12,-42 21,-77 27,-108 -55,-19 -146,-29 -104,-263 -52,-74 -91,-220 -27,-629 150,-953 48,-881 72,-1167 24,-286 -98,-24 -102,-738l-1 -80c140,-75 79,-64 153,-209 25,22 -86,-171 -66,-197 -5,-33 -8,-68 -10,-106 -6,-144 17,-166 14,-260 -16,-569 -6,-292 -50,-476 -50,-214 142,-470 143,-589 0,-119 -49,-264 -125,-478 -76,-214 51,-405 27,-667 -25,-262 -169,-615 -115,-901 53,-285 306,-170 333,-385 13,-102 79,-156 145,-184l18 -2 36 -5 16 -2 249 -30 31 -4 120 74 1 -18 33 11 745 -335c40,1 86,1 146,1l51 1 19 11 72 205 103 21 258 -107 613 -106c4,-2 8,-3 12,-4 53,7 99,13 144,9l49 229 140 -68 15 7c19,-158 359,64 439,-95l176 101 1 0c14,-109 57,-141 159,-106 27,-31 259,-62 295,-55l52 62 254 -40 124 44 310 -1 128 -154 163 79 154 -104 376 -59 73 37 138 70 37 19 83 -72 98 101 683 32 164 -69 139 83 711 33 147 7 112 5 111 5 48 3 30 -18 156 -15 290 -28 276 7 105 13 204 -122c89,36 167,90 283,77l542 97 26 -10 335 13 13 -2c269,-34 114,93 387,128 48,7 147,-89 248,-70l282 6 222 -131 125 3 138 -14 206 111 45 -4 466 -41 40 -4 1 -2 2 1 53 -6 170 7 3 1 55 77 155 -63 3 -7 27 1c50,56 75,63 165,89 60,18 112,12 171,-1l51 39c0,0 129,72 283,167 155,95 155,95 206,214 51,119 -2,215 -3,405 -1,191 -2,310 -3,524l-2 343 -82 262 -60 73 102 133 25 6 -6 81 -4 69 -20 33c-13,271 -23,537 53,803 37,185 56,377 2,561 53,316 128,846 128,983 1,61 -55,366 -111,529l-61 -7 -1 148c-17,49 -40,107 -60,166 -4,118 -10,232 -21,339 7,20 16,39 25,57 32,8 48,43 53,94 56,92 119,181 140,287 -30,29 -82,95 -81,197 0,143 79,381 106,548 15,92 30,177 40,235l-17 54 -60 74 61 80 -21 71 -61 73 29 38c-25,-3 -45,6 -61,23l-42 187c0,61 5,131 14,205l128 68c1,39 -29,174 -61,338 32,165 62,300 61,338l-128 68c-9,74 -14,145 -14,206l42 186c18,20 29,72 59,66 -15,160 -88,259 -21,323 0,0 79,93 52,260 -27,167 -106,405 -106,548 -1,102 20,223 50,253 -21,105 1,139 -56,231 -5,51 -21,86 -53,93 -9,19 -18,38 -25,58 11,107 21,195 24,313 20,59 -13,142 4,192l1 147 61 -7c56,163 112,468 111,529 0,137 -75,667 -128,984 54,183 35,375 -2,561 -76,266 -66,531 -53,803l20 33 4 69 7 101 4 69 5 88c3,57 4,116 4,211 1,190 2,214 3,429 1,214 2,333 3,523 1,191 54,286 3,405 -51,119 -51,119 -206,214 -154,96 -283,167 -283,167l-154 119 -298 11 -114 4 -234 9z"/>
  <path class="fil3" d="M1848 15007c4978,3847 10856,-681 14124,237 1,25 2,50 3,77 20,59 -13,142 4,192l1 147 61 -7c56,163 112,468 111,529 0,137 -75,667 -128,984 54,183 35,375 -2,561 -76,266 -66,531 -53,803l20 33 4 69 7 101 4 69 5 88c3,57 4,116 4,211 1,190 2,214 3,429 1,214 2,333 3,523 1,191 54,286 3,405 -51,119 -51,119 -206,214 -154,96 -283,167 -283,167l-154 119 -298 11 -114 4 -234 9 -53 -6 -2 2 -1 -2 -40 -5 -466 -41 -45 -4 -159 120c-110,-6 -225,-5 -359,-17 -10,-1 -21,-2 -32,-2l-141 -131 -294 -107c-102,19 -188,36 -236,42 -273,35 -118,163 -387,128l-13 -2 -335 -199 -26 -10 -381 271c-191,-16 -120,-47 -322,-64 -126,-11 -182,37 -287,81l-39 -24 -105 14 -276 7 -290 -28 -156 -15 -30 -18 -48 2 -111 5 -112 6 -147 6 -711 33 -42 56 -20 -15c-28,-5 -58,-10 -90,-16 -56,-10 -104,-12 -149,-8l-2 -2 -683 31 -50 57c-164,-47 -270,-114 -462,-78 -32,6 -62,11 -90,16 -36,26 -68,48 -95,67 -35,8 -72,18 -112,30l-3 1 -147 -100 -23 29c-34,-18 -89,-25 -180,-10l-88 -94 -310 -2 -124 44 -254 -39 -52 61c-36,7 -268,-23 -295,-54 -102,34 -145,2 -159,-106l-1 -1 -176 101c-49,-96 -192,-53 -302,-38 -16,-1 -34,-1 -53,1l-20 1c-35,-4 -59,-20 -64,-59l-15 7 -140 -67 -38 177c-71,9 -190,14 -414,14l-366 -63 -258 -107 -103 20 -62 177c-120,-45 -236,-80 -371,-68 -29,3 -57,5 -85,6l-515 -231 -33 11 -1 -18 -120 73 -31 -4 -412 -30 -16 -2 -36 -4 145 -3c-66,-28 -295,-81 -308,-184 -27,-214 84,-262 30,-548 -53,-285 -210,-476 -185,-738 24,-262 -3,-452 73,-667 76,-214 125,-358 125,-477 -1,-119 -55,-500 -5,-715 43,-184 33,93 50,-476 3,-93 -22,-213 -16,-357 2,-38 6,-73 10,-106 -20,-25 -43,-31 -69,-10 -115,-158 102,-325 -91,-299l0 -79c5,-715 -36,-334 -60,-620 -16,-191 69,-219 82,-502z"/>
  <path class="fil4" d="M1847 14827c4368,3651 10470,-3456 14248,-1492 6,-29 12,-60 15,-93 -30,6 -41,-46 -59,-66l-42 -186c0,-61 5,-132 14,-206l128 -68c1,-38 -29,-173 -61,-338 32,-164 62,-299 61,-338l-128 -68c-9,-74 -14,-144 -14,-205l42 -187c16,-17 36,-26 61,-23l-29 -38 61 -73 21 -71 -61 -80 60 -74 17 -54c-10,-58 -25,-143 -40,-235 -27,-167 -106,-405 -106,-548 -1,-102 51,-168 81,-197 -21,-106 -84,-195 -140,-287 -5,-51 -21,-86 -53,-94 -6,-11 -11,-23 -16,-34 -5577,-634 -8398,7719 -14076,4849 8,78 14,146 16,206z"/>
  <path class="fil5" d="M4451 18723c-2,79 17,175 58,288 33,87 67,174 100,260 25,1 51,9 76,23 17,108 133,215 345,322 37,17 113,37 226,59 125,26 234,38 324,38l65 0c68,0 152,-20 251,-60 99,-41 156,-80 169,-118 5,-14 19,-22 42,-22 33,-1 51,-3 53,-4 23,-10 50,-29 81,-57 51,-43 106,-122 164,-236 58,-114 87,-203 89,-264 0,-4 -5,-18 -14,-42 -10,-25 -15,-39 -15,-44 0,0 10,-18 30,-55 20,-36 30,-64 30,-83 3,-127 -53,-311 -166,-553 -15,-1 -31,-4 -47,-7 -17,-3 -26,-8 -28,-16 -93,-275 -399,-412 -919,-412 -78,0 -166,15 -262,45 -120,38 -182,82 -189,131 -116,24 -215,101 -296,233 -70,111 -107,216 -109,314 0,5 1,26 3,61 1,36 2,55 2,59 0,0 -10,18 -31,54 -21,37 -32,66 -32,86zm440 -52c1,-32 13,-105 38,-219 31,-135 61,-233 90,-293 29,-61 81,-122 155,-184 59,-33 131,-79 215,-138 21,2 55,7 102,15 48,8 76,12 83,12 5,0 12,-3 21,-9 9,-5 18,-8 25,-8 144,0 263,149 358,447 68,216 102,373 100,472 -4,160 -41,325 -113,493 -34,74 -88,146 -160,214 -31,28 -78,60 -142,95 -54,30 -84,45 -92,45 -5,0 -33,-4 -83,-13 -50,-8 -78,-13 -83,-13 -7,0 -16,3 -26,9 -11,5 -18,8 -23,8 -142,0 -261,-149 -358,-445 -74,-222 -109,-385 -107,-488z"/>
  <path class="fil5" d="M8601 18721c0,116 -25,235 -77,357 -66,157 -154,249 -264,276 12,40 15,63 11,69 -29,35 -87,78 -176,128 -99,56 -185,89 -257,101 -221,30 -390,45 -507,45 -460,0 -752,4 -876,12 23,-26 68,-46 133,-60 87,-19 139,-32 155,-40 52,-23 79,-58 81,-105 11,-26 21,-50 32,-74 21,-52 32,-90 32,-114l0 -341c0,-39 0,-91 0,-153 0,-63 0,-116 0,-159 0,-28 -9,-65 -25,-111 -19,-59 -29,-97 -32,-115 -7,-43 -9,-108 -5,-197 4,-89 3,-152 -2,-188 0,-24 -4,-55 -14,-93 -30,-70 -115,-114 -253,-134 -94,-12 -157,-27 -190,-42 0,-16 3,-28 10,-36l88 0c38,0 108,5 211,17 12,1 34,6 67,13 33,7 54,10 64,10l890 19c239,0 452,99 637,296 164,174 242,339 232,495 0,0 6,12 18,35 11,24 17,54 17,89zm-425 69c0,-46 -7,-116 -22,-209 -14,-92 -21,-140 -21,-144 14,-20 28,-41 43,-62 0,-11 -13,-21 -39,-29 -26,-9 -40,-14 -42,-16 -33,-22 -63,-55 -88,-97 -31,-51 -57,-89 -78,-112 3,-35 -56,-85 -176,-150 -119,-65 -219,-98 -299,-98 -96,0 -157,21 -183,62 -16,25 -24,82 -24,169l0 200c0,3 -7,17 -20,40 -13,24 -19,38 -19,43 0,21 6,39 19,55 13,16 20,24 20,24l0 200c0,19 -3,53 -9,103 -6,50 -9,85 -9,104l0 167c0,3 -4,24 -11,63 -7,39 -10,60 -10,65 0,5 5,14 13,28 9,13 14,21 17,25 6,20 9,74 9,161l0 165c0,6 8,18 24,34 17,17 33,25 49,25 172,0 333,-48 484,-144 152,-96 244,-211 277,-346 9,-6 19,-17 31,-31 42,-183 64,-281 64,-295z"/>
  <path class="fil5" d="M10165 19583c-100,-126 -149,-169 -257,-303 -68,-78 -149,-156 -240,-233 -142,-122 -247,-183 -313,-183l-7 -29c-12,-2 -21,-2 -28,-2 -41,0 -59,37 -55,113 5,75 1,133 -12,172 -12,40 -19,54 -19,43 0,5 3,9 7,12 5,3 7,7 7,12l0 174c0,108 21,182 62,223 46,50 143,86 292,110l0 29 -151 -31 -399 0 -333 12c-42,0 -74,-5 -97,-15 53,-17 106,-35 158,-52 69,-24 105,-50 107,-79 0,0 0,-62 0,-185 0,1 8,-31 24,-96l21 -738c-2,-14 -1,-36 5,-68 6,-30 9,-46 9,-46 0,-201 -26,-356 -76,-464 -14,-27 -65,-58 -153,-93 -88,-35 -160,-53 -215,-55 16,-11 39,-17 69,-19 20,-2 51,-1 91,1 40,3 65,4 74,4l454 -5c4,0 30,4 77,11 47,7 74,11 81,11l299 -31c83,0 146,5 189,16 21,19 59,39 114,60 121,8 216,72 285,193 53,92 79,188 79,290 0,60 -16,123 -48,188 -41,83 -96,141 -165,176 -23,0 -53,4 -90,12 -34,21 -68,41 -101,61 -33,20 -73,34 -119,42 -36,1 -94,6 -171,14 147,33 297,105 449,214 163,116 245,218 245,307 0,29 -8,52 -26,69 -17,18 -26,33 -26,46 0,4 0,7 0,11 43,0 85,0 127,0 21,41 56,73 115,87 55,14 110,28 165,42 43,15 71,40 65,85l-534 -19 -91 12 19 -15c-3,0 85,-19 64,-29l-27 -62zm-205 -1389c0,0 -34,-42 -103,-128 -30,-38 -87,-79 -170,-124 -84,-44 -152,-67 -205,-67 -87,0 -147,24 -179,72 -21,32 -31,84 -31,157l0 610c0,20 22,31 66,31 4,0 31,-5 79,-14 48,-8 75,-13 82,-13 5,0 10,1 16,3 5,1 12,2 19,2 94,0 186,-42 278,-126 83,-76 124,-143 124,-200l0 -179c0,-5 4,-8 12,-12 8,-3 12,-7 12,-12z"/>
  <path class="fil5" d="M4254 19151c0,7 -4,16 -13,29 -9,13 -13,21 -13,26 0,8 9,14 26,17 -39,87 -144,184 -313,290 -157,97 -259,143 -307,139 -5,-2 -15,1 -30,9 -15,8 -28,13 -37,14 -89,11 -188,17 -293,17 -5,0 -50,-3 -135,-8 -86,-6 -132,-9 -139,-9 -145,0 -266,6 -362,17 -95,11 -139,17 -130,17 -49,0 -55,-48 -44,-65 441,-97 379,-265 402,-554 0,-23 1,-45 4,-67 2,-29 9,-47 23,-55 -14,-41 -20,-78 -20,-112 9,-168 13,-254 13,-259 2,-43 3,-68 3,-76 11,-37 40,-68 86,-93 -5,-8 -21,-19 -50,-34 -28,-14 -42,-25 -42,-33 0,-6 8,-13 26,-19 -22,-22 -36,-52 -43,-88 -4,-30 -8,-60 -13,-90 -2,-42 -5,-84 -10,-127 -4,-55 -20,-97 -49,-126 -18,-20 -65,-44 -141,-71 -84,-30 -152,-46 -204,-48 -7,-5 -10,-13 -10,-26 26,0 72,2 136,5 65,3 98,4 101,4l460 -9c7,0 27,4 62,13 36,9 56,13 63,13 7,0 11,-2 13,-7 2,-5 3,-8 3,-10l293 0c29,0 54,5 76,15 46,24 113,48 200,74 73,6 138,57 198,154 50,81 75,146 75,195 0,86 -28,164 -85,234 -70,86 -173,142 -309,169 35,6 66,18 93,36 28,17 52,28 74,33 117,19 206,69 270,150 55,70 77,138 66,205 17,51 26,88 26,111zm-516 -938c0,-68 -33,-126 -99,-173 -35,-27 -70,-54 -105,-81 -59,-38 -104,-61 -135,-67 -9,-1 -25,-6 -48,-13 -23,-7 -37,-11 -44,-11l-36 0c-13,10 -26,53 -40,129 -11,54 -16,108 -16,162l0 445 79 0c125,0 232,-45 322,-136 81,-82 122,-167 122,-255zm158 924c0,-47 -10,-89 -30,-124 0,-11 4,-19 13,-26 -47,-70 -113,-132 -195,-188 -94,-63 -178,-95 -254,-95 -30,0 -63,-2 -96,-7 -34,-5 -52,-7 -54,-7 -4,0 -15,3 -31,9 -16,7 -27,10 -34,10 7,14 10,46 10,95 0,54 -7,128 -20,221 -13,94 -20,138 -20,134 0,6 3,12 9,19 5,6 8,11 8,14l0 188c0,3 5,34 16,93 11,63 18,108 20,133l92 0c149,0 284,-57 404,-171 108,-102 162,-201 162,-298z"/>
  <path class="fil5" d="M15473 19707l-147 0c-5,2 -65,-4 -181,-16 -115,-13 -175,-19 -180,-19 -7,0 -53,3 -138,8 -85,6 -132,8 -139,8 -23,0 -51,-4 -84,-12l0 -26c159,-11 238,-67 238,-168l0 -171c0,-8 -3,-21 -10,-38 -2,-13 -2,-27 0,-43 5,-22 16,-52 31,-90l0 -380c-21,-14 -39,-19 -52,-14 7,-10 14,-23 21,-40l0 -133c37,-30 56,-57 56,-81 0,-17 -5,-31 -15,-40 -36,12 -64,35 -84,68 -32,53 -120,83 -128,91 0,-2 13,-3 38,-3 -14,22 -25,51 -35,87 -9,35 -20,65 -35,89 -79,131 -119,228 -119,290 0,23 5,45 14,66 -46,38 -82,97 -105,178 -28,103 -51,169 -70,199 -11,-6 -30,-16 -56,-30 -4,-34 -81,-170 -231,-409 -139,-223 -204,-350 -192,-382 -77,-17 -100,-103 -207,-259 -101,-147 -162,-220 -186,-220 -25,0 -38,17 -38,52 0,181 8,336 24,464l-14 214 14 293c-21,59 -31,81 -31,67 0,-7 11,12 33,55 22,44 30,89 23,134 -7,31 3,52 31,67 33,19 90,36 172,52 133,27 203,42 210,45l0 38c-126,-10 -207,-13 -242,-10 -51,7 -74,10 -70,10 -7,0 -20,-4 -40,-11 -20,-7 -33,-11 -40,-11 -7,0 -28,3 -63,9 -35,5 -56,8 -63,8 -7,0 -29,-2 -67,-6 -37,-4 -58,-6 -63,-6 -7,0 -35,5 -84,13 -49,9 -76,13 -80,13 -2,0 -15,-1 -37,-4 -22,-4 -39,-4 -51,-3 -9,-5 -14,-11 -14,-19 0,-12 36,-30 107,-52 71,-22 111,-37 121,-45 49,-41 73,-86 73,-135 0,-16 -3,-36 -8,-61 -6,-24 -9,-40 -9,-46 0,-8 1,-14 3,-19 21,-24 32,-41 32,-52l0 -142c0,-5 2,-10 7,-16 5,-5 7,-9 7,-13l0 -223c0,-28 4,-48 12,-60 8,-12 12,-24 12,-37 0,0 -6,-28 -19,-85 -13,-57 -19,-105 -19,-145 0,-281 0,-422 0,-422 0,-33 -7,-80 -21,-142 -31,-65 -108,-145 -230,-240 -181,-142 -346,-212 -495,-208 -18,1 -28,-7 -28,-24 0,-5 1,-9 4,-12 2,-3 3,-5 3,-5 24,-1 61,-6 112,-14 45,-6 70,-10 77,-10 87,0 153,14 200,41 56,30 118,49 185,57 28,27 81,58 158,92 84,40 147,76 189,107 100,78 149,142 147,193 21,15 51,28 91,36 40,9 70,24 91,44 21,21 32,41 33,61 1,20 3,38 5,56 5,3 30,12 74,28 16,40 12,128 126,266 124,150 197,245 221,282 2,4 9,21 17,55 6,24 18,42 39,55 4,-2 12,0 21,6 9,5 16,8 21,8 5,-13 26,-37 63,-74 37,-36 62,-69 77,-97 85,-163 234,-302 304,-415 2,-2 3,-28 3,-79l35 0c5,-1 7,-9 7,-24 61,-64 122,-130 182,-197 108,-109 195,-163 263,-163l42 0 0 26c-33,4 -64,38 -95,99 -25,56 -38,100 -38,133l0 157c0,30 -7,79 -21,148 -14,69 -21,112 -21,130 0,3 3,12 9,26 6,14 8,23 8,26l0 152c-11,166 -17,257 -17,273 0,5 3,11 9,20 6,9 8,16 8,20l0 140c0,13 19,140 57,380 6,43 66,78 178,105 16,8 41,19 74,33l0 28zm-2979 -83l-11 31 -52 0 0 -52c16,3 37,10 63,21z"/>
  <path class="fil5" d="M12885 19720l-51 0c-153,0 -308,-13 -466,-40 -4,0 -25,-9 -64,-28 -38,-19 -76,-29 -114,-29 -5,0 -12,2 -23,6 -10,4 -18,7 -22,9 -28,-2 -67,-1 -118,2 -4,1 -14,6 -29,14 -15,8 -25,12 -32,12l-217 0c-4,0 -16,3 -35,8 -19,6 -32,8 -38,8l-109 17c-49,7 -118,-15 -205,-45 -31,-1 -57,-1 -76,0 -5,-2 -12,-5 -22,-9 -11,-3 -18,-5 -22,-5 -39,0 -77,9 -117,28 -39,19 -61,28 -65,28 -48,8 -102,-18 -150,-12 8,-36 40,-43 31,-79 -28,-108 0,-236 6,-355 -32,-55 -57,-86 -75,-95 4,-30 24,-56 61,-78 -25,-23 -22,-44 -24,-104 -2,-61 9,-58 0,-106 19,-24 24,-66 24,-125 0,-18 -3,-52 -8,-103 -6,-51 -8,-88 -8,-110l0 -147c0,-3 -5,-23 -15,-60 -9,-37 -14,-58 -14,-63 0,-3 5,-32 14,-87 10,-55 15,-85 15,-90 0,-82 -11,-139 -32,-170 -30,-47 -95,-73 -195,-76l7 -30 564 0c74,-2 124,6 267,-8 6,6 9,13 9,19 0,24 -44,35 -67,35 -88,-3 -126,6 -166,58 -49,63 -65,130 -51,203 -23,14 -9,47 -11,100 -2,53 -13,82 -26,127l6 23 20 -4c-21,28 -30,56 -26,82 5,59 5,96 0,111 -6,19 -9,27 -9,24 0,11 6,92 19,241 15,155 23,246 25,274 5,5 14,7 29,5 17,74 -25,148 -8,220 28,98 24,180 111,205 21,0 237,15 277,16 77,11 114,27 112,47 36,4 49,5 38,5 28,0 64,-13 108,-40 -4,-3 -12,-5 -25,-5 2,0 7,1 16,3 9,0 16,0 23,0 4,0 14,-4 28,-12 14,-8 24,-13 31,-14 54,-7 100,-8 137,-58 34,-46 52,-94 52,-145 0,-12 0,-24 0,-35 -2,-9 2,-27 13,-52 10,-25 16,-44 16,-57 2,-6 1,-23 -4,-49 -4,-37 -6,-86 -6,-147l0 -329c0,-47 4,-79 13,-95 8,-17 36,-39 83,-68 -30,-11 -64,-32 -102,-64 -2,-47 -6,-120 -10,-219 -4,-114 -12,-191 -24,-231 -11,-40 -33,-66 -65,-79 -7,-3 -52,-15 -137,-35l0 -52c6,0 18,-2 35,-4 17,-2 28,-4 35,-4 6,0 31,5 73,15 43,9 67,14 74,14 91,0 205,-7 341,-20 113,-10 183,-18 211,-25 31,-6 78,-3 140,12 -17,20 -49,37 -96,49 -34,8 -69,17 -105,26 -66,19 -107,64 -125,135 -4,18 -6,67 -6,147l0 246 -38 64 38 106 0 244c0,5 -4,9 -11,11 -8,2 -11,5 -11,8l0 209c0,4 0,13 0,27 0,13 0,22 0,27l0 234c0,29 11,78 34,149 27,89 56,135 85,140 54,10 108,24 160,43 67,22 98,42 94,61z"/>
  <path class="fil0" d="M14849 16922c-1624,-1442 -2839,-2349 -5003,-3024 -1111,-346 -4545,-1275 -4596,-2559 -49,-808 250,-1495 414,-2280 50,-243 41,-481 -40,-716 -319,-925 -1777,-1876 -2475,-2608 649,969 1392,1300 1712,2075 471,1141 -42,2488 44,3682 101,1406 1484,2140 2985,2592 2840,854 4415,747 6959,2838z"/>
  <path class="fil6" d="M4767 11813c128,-2769 -3889,-1133 -1172,-5292 -240,442 -743,1321 -732,1836 32,1452 2235,1071 1904,3456z"/>
  <path class="fil6" d="M14079 17597c-1215,-1801 -1954,-3125 -2336,-5360 -196,-1147 -663,-4673 -1929,-4894 -794,-155 -1514,51 -2314,109 -248,18 -483,-23 -705,-134 -875,-439 -1624,-2009 -2258,-2798 875,772 1105,1551 1830,1971 1069,618 2472,287 3645,530 1380,286 1925,1755 2174,3302 471,2928 156,4475 1893,7274z"/>
  <g style="clip-path:url(#id0)">
   <image x="4537" y="4520" width="9542" height="13077" xlink:href="Безымянный-1_Images\Безымянный-1_ImgID1.png"/>
  </g>
  <path class="fil0" d="M10348 6928c-2761,-240 -609,-4006 -5091,-1862 470,-180 1408,-562 1917,-482 1435,222 765,2356 3174,2344z"/>
  <path class="fil7 str0" d="M2949 2352c0,150 -64,267 -192,349 -125,80 -296,120 -514,120 -61,0 -179,-2 -356,-7 11,-241 16,-506 16,-797 0,-273 -5,-513 -16,-719l139 0c28,0 82,-1 164,-4 82,-2 142,-3 180,-3 322,0 484,111 484,334 0,174 -77,289 -230,347l0 12c217,39 325,161 325,368zm-197 19c0,-191 -168,-286 -507,-286 -62,0 -117,2 -164,7 0,207 5,392 13,555 30,7 81,11 156,11 187,0 320,-25 398,-74 70,-44 104,-115 104,-213zm-94 -688c0,-160 -108,-241 -324,-241 -109,0 -197,6 -264,18 6,55 9,214 9,474 38,1 80,2 126,2 153,0 265,-18 334,-53 80,-38 119,-105 119,-200zm1955 1131l-245 0c0,-52 -49,-216 -147,-490l-672 0c-96,270 -144,434 -144,490l-235 0c0,-29 100,-277 300,-745 201,-467 301,-724 301,-771l270 0c0,46 95,299 286,760 191,461 286,713 286,756zm-446 -643c-182,-456 -273,-698 -273,-726l-13 0c0,23 -94,266 -283,726l569 0zm2460 643l-1689 0c9,-247 14,-484 14,-709 0,-236 -5,-505 -14,-807l214 0c-9,217 -13,472 -13,765l0 593 548 0 0 -573c0,-296 -4,-558 -12,-785l215 0c-8,217 -12,472 -12,765l0 593 548 0 0 -573c0,-296 -4,-558 -13,-785l214 0c-9,308 -13,577 -13,807 0,217 4,453 13,709zm2110 -462c0,150 -63,266 -190,347 -126,81 -298,122 -516,122 -61,0 -180,-2 -356,-7 10,-241 16,-506 16,-797 0,-273 -6,-513 -16,-719l974 0 -8 173c-279,-9 -538,-14 -777,-14 3,122 5,281 5,477 71,-4 136,-5 195,-5 195,0 342,22 444,65 152,66 229,185 229,358zm-197 19c0,-191 -169,-286 -507,-286 -62,0 -117,2 -164,7 0,207 4,392 13,555 29,7 81,11 156,11 188,0 318,-23 392,-70 74,-47 110,-119 110,-217zm1905 -339c0,251 -73,452 -220,602 -147,150 -316,225 -509,225 -184,0 -346,-69 -485,-207 -140,-137 -209,-323 -209,-558 0,-253 73,-455 220,-604 146,-148 316,-223 508,-223 185,0 347,70 486,207 139,138 209,324 209,558zm-207 27c0,-200 -53,-355 -158,-465 -105,-110 -226,-164 -364,-164 -127,0 -240,57 -339,173 -99,115 -149,270 -149,463 0,201 53,357 158,466 106,110 228,165 364,165 127,0 240,-58 339,-175 99,-118 149,-272 149,-463zm1910 597c0,45 -11,143 -32,294 -22,151 -33,266 -33,347l-138 0c0,-98 -2,-262 -5,-489 -123,-8 -306,-12 -550,-12 -206,0 -381,4 -523,12 -42,227 -63,391 -63,489l-132 0c0,-80 -2,-195 -4,-345 -2,-151 -4,-249 -4,-296l112 0c133,-404 315,-857 546,-1358l594 0c-10,248 -14,484 -14,710 0,228 6,444 20,648l226 0zm-421 0c-9,-149 -14,-352 -14,-607 0,-232 -2,-434 -5,-604l-285 0c-234,551 -390,954 -466,1211l770 0zm1806 -982c0,177 -67,309 -202,397 -134,88 -314,132 -541,132 -28,0 -53,-1 -74,-3 0,169 6,374 18,614l-223 0c12,-221 18,-486 18,-797 0,-267 -6,-506 -18,-719l167 0c18,0 68,-1 153,-4 84,-2 155,-3 214,-3 149,0 268,34 356,102 88,68 132,161 132,281zm-195 68c0,-200 -136,-300 -408,-300 -66,0 -142,6 -225,18 6,126 9,323 9,591 27,2 60,3 100,3 349,0 524,-105 524,-312zm1599 -444c0,43 -56,198 -167,465 -111,267 -214,484 -308,651 -94,166 -186,280 -274,342 -89,61 -211,92 -365,92l-10 -165c131,0 230,-20 295,-62 66,-41 125,-119 178,-233 0,-57 -95,-249 -285,-577 -190,-327 -286,-498 -286,-513l241 0c0,23 73,168 218,436 146,267 219,416 219,448l11 0c214,-474 321,-768 321,-884l212 0zm1921 1516l-218 0c0,-174 -12,-424 -36,-751 -24,-328 -37,-524 -39,-589l-12 0c-77,252 -175,526 -294,821 -119,295 -179,468 -179,519l-157 0c0,-55 -55,-231 -167,-528 -110,-298 -181,-497 -210,-598 -30,-101 -50,-173 -61,-214l-11 0c-2,106 -18,320 -46,643 -29,323 -43,555 -43,697l-200 0c0,-8 26,-222 79,-641 53,-420 79,-711 79,-875l307 0c0,85 61,298 186,640 124,342 186,549 186,621l12 0c0,-72 69,-280 209,-623 140,-342 209,-555 209,-638l299 0c0,164 18,454 54,871 36,417 53,632 53,645z"/>
  <g>
   <path class="fil7" d="M2645 22933c0,213 -58,383 -175,511 -116,128 -251,192 -403,192 -147,0 -275,-59 -386,-176 -110,-117 -165,-276 -165,-475 0,-216 58,-387 174,-514 116,-126 251,-189 404,-189 146,0 275,59 385,176 111,117 166,275 166,475zm-164 23c0,-171 -42,-303 -125,-396 -84,-94 -180,-140 -289,-140 -101,0 -191,49 -270,147 -78,99 -118,230 -118,394 0,171 42,304 126,397 84,94 180,140 289,140 101,0 190,-50 269,-149 78,-100 118,-231 118,-393zm1648 -78c0,136 -42,252 -125,346 -82,95 -210,150 -383,165 0,51 2,120 5,208l-162 0c4,-72 5,-141 5,-208 -176,-10 -305,-57 -386,-140 -81,-84 -122,-190 -122,-318 0,-136 42,-252 124,-347 83,-94 211,-149 384,-164 0,-58 -1,-113 -5,-163l162 0c-2,44 -4,98 -5,163 177,10 305,57 386,140 81,84 122,190 122,318zm-150 31c0,-222 -121,-346 -362,-372 -3,118 -5,233 -5,346 0,122 2,251 5,388 241,-21 362,-142 362,-362zm-502 17c0,-122 -2,-251 -4,-389 -241,22 -362,143 -362,363 0,222 121,346 362,371 2,-117 4,-232 4,-345zm1983 671l-175 0c9,-123 13,-306 13,-551 0,-112 2,-254 5,-428l-9 0c-22,67 -137,235 -345,507 -195,253 -292,410 -292,472l-130 0c11,-175 16,-379 16,-612 0,-237 -5,-463 -16,-678l174 0c-9,179 -13,379 -13,601 0,113 -3,240 -8,378l10 0c25,-66 143,-234 354,-504 191,-245 286,-403 286,-475l130 0c-9,215 -14,441 -14,678 0,233 5,437 14,612zm1326 -157l-12 147c-76,25 -158,37 -247,37 -212,0 -371,-62 -478,-187 -106,-124 -160,-276 -160,-456 0,-188 60,-350 178,-487 119,-136 279,-204 480,-204 55,0 114,9 175,27l-25 157c-71,-24 -134,-36 -190,-36 -149,0 -262,50 -339,149 -77,99 -115,220 -115,363 0,147 44,272 133,376 89,104 211,156 368,156 59,0 137,-14 232,-42zm1617 -1133l-4 140c-122,-6 -248,-10 -378,-10 -1,127 -2,288 -2,483 0,215 3,441 9,677l-169 0c8,-225 11,-451 11,-677 0,-192 -2,-353 -5,-483 -91,0 -219,4 -384,12l4 -142 918 0zm1164 0c0,37 -44,169 -132,396 -88,228 -170,412 -245,554 -75,142 -147,238 -217,291 -71,52 -167,78 -290,78l-8 -140c104,0 182,-17 234,-53 53,-35 99,-101 141,-198 0,-49 -75,-212 -226,-490 -151,-279 -226,-425 -226,-438l191 0c0,20 58,144 173,372 115,227 173,354 173,380l10 0c170,-402 254,-653 254,-752l168 0zm1139 321c0,150 -53,263 -160,337 -106,75 -249,112 -429,112 -23,0 -43,0 -59,-2 0,144 5,318 14,522l-177 0c9,-187 14,-413 14,-677 0,-227 -5,-431 -14,-613l132 0c15,0 55,0 122,-2 67,-2 123,-3 170,-3 119,0 212,28 282,86 70,58 105,138 105,240zm-154 57c0,-170 -108,-254 -324,-254 -53,0 -113,4 -179,14 5,108 7,276 7,503 22,2 48,2 79,2 278,0 417,-88 417,-265zm1486 912l-176 0c9,-123 13,-306 13,-551 0,-112 2,-254 6,-428l-10 0c-21,67 -136,235 -345,507 -194,253 -292,410 -292,472l-129 0c10,-175 16,-379 16,-612 0,-237 -6,-463 -16,-678l174 0c-9,179 -13,379 -13,601 0,113 -3,240 -9,378l10 0c26,-66 144,-234 354,-504 191,-245 287,-403 287,-475l130 0c-9,215 -14,441 -14,678 0,233 5,437 14,612zm1254 -382c0,123 -44,223 -130,300 -87,76 -200,115 -340,115 -150,0 -279,-21 -386,-64l24 -157c118,54 239,80 362,80 208,0 313,-83 313,-250 0,-86 -36,-148 -109,-187 -72,-39 -165,-59 -277,-59 -53,0 -102,2 -146,5l21 -148c36,4 86,6 150,6 204,0 306,-77 306,-228 0,-132 -93,-197 -279,-197 -119,0 -223,19 -312,59l22 -153c82,-31 204,-47 366,-47 119,0 208,27 268,82 59,56 89,125 89,210 0,142 -66,242 -200,299l0 10c172,36 258,144 258,324zm1716 382l-173 0c0,-147 -10,-360 -29,-639 -19,-278 -29,-445 -30,-501l-10 0c-61,215 -139,448 -234,699 -94,251 -141,398 -141,441l-125 0c0,-46 -44,-196 -132,-449 -88,-253 -144,-423 -167,-509 -24,-85 -40,-146 -48,-182l-10 0c-1,91 -14,273 -36,548 -23,274 -34,472 -34,592l-159 0c0,-7 21,-188 63,-545 42,-357 63,-605 63,-745l243 0c0,73 49,255 148,545 98,291 147,467 147,528l10 0c0,-61 55,-237 166,-529 111,-292 166,-473 166,-544l237 0c0,140 14,387 43,741 28,355 42,538 42,549zm1473 0l-195 0c0,-44 -39,-183 -116,-417l-533 0c-77,231 -115,369 -115,417l-186 0c0,-24 79,-235 238,-633 159,-398 238,-617 238,-657l215 0c0,40 75,255 227,648 151,392 227,606 227,642zm-354 -546c-144,-388 -217,-594 -217,-618l-10 0c0,20 -75,226 -225,618l452 0z"/>
   <path id="1" class="fil7" d="M2511 23487l-82 -86 0 0 10 -11 10 -11 9 -12 8 -11 9 -12 8 -12 8 -12 7 -13 8 -12 6 -13 7 -13 6 -14 6 -14 6 -13 5 -15 6 -14 4 -15 5 -14 4 -16 4 -15 4 -16 3 -16 3 -16 2 -16 3 -17 2 -17 2 -18 1 -17 1 -18 1 -18 0 -19 1 -18 114 0 0 21 0 20 -1 21 -1 20 -2 20 -2 20 -2 20 -3 19 -3 20 -4 19 -4 18 -4 19 -5 18 -5 18 -5 18 -6 18 -6 17 -6 17 -7 17 -8 16 -7 17 -8 16 -9 16 -9 15 -9 15 -9 15 -10 15 -11 14 -10 15 -11 13 -12 14 -12 13 0 0zm-82 -86l0 0 2 -2 -2 2zm-362 296l0 -123 0 0 13 0 12 -1 13 -1 12 -1 13 -1 12 -2 12 -2 12 -3 12 -3 12 -3 12 -3 11 -4 12 -4 11 -5 12 -4 11 -6 11 -5 11 -6 11 -6 11 -7 11 -7 11 -7 11 -7 10 -8 11 -9 11 -8 10 -9 10 -10 11 -10 10 -10 10 -10 10 -11 82 86 -11 13 -12 12 -12 12 -13 12 -12 11 -13 11 -12 10 -13 10 -13 10 -13 9 -13 9 -14 8 -13 8 -14 8 -14 7 -14 7 -14 7 -14 6 -14 5 -15 6 -14 4 -15 5 -15 4 -14 3 -15 3 -16 3 -15 2 -15 2 -15 2 -16 1 -16 0 -15 0 0 0zm-426 -193l81 -88 0 0 9 10 10 9 10 10 9 9 10 8 10 8 10 8 10 8 10 7 10 7 11 7 10 6 10 6 11 6 10 5 11 5 11 5 11 4 10 4 11 4 12 4 11 3 11 3 11 2 12 2 12 2 11 2 12 2 12 1 12 0 12 1 13 0 0 123 -15 0 -15 0 -15 -1 -15 -2 -14 -1 -15 -2 -14 -3 -15 -3 -14 -3 -14 -4 -14 -4 -14 -4 -14 -5 -14 -5 -13 -5 -14 -6 -13 -7 -13 -6 -13 -7 -13 -8 -13 -8 -13 -8 -12 -8 -13 -9 -12 -9 -12 -10 -12 -10 -12 -10 -12 -11 -11 -11 -12 -11 -11 -12 0 0zm81 -88l0 0 5 6 -5 -6zm-264 -431l115 0 0 0 0 17 1 18 0 16 1 17 2 16 1 16 2 16 2 16 3 15 3 15 3 15 3 14 4 15 4 14 4 13 5 14 4 13 6 13 5 13 6 12 5 12 7 12 6 12 7 12 7 11 7 11 8 11 8 11 8 11 9 10 8 10 10 10 -81 88 -11 -12 -11 -13 -11 -13 -10 -13 -10 -13 -9 -14 -10 -14 -8 -14 -9 -15 -8 -14 -8 -15 -7 -15 -7 -16 -7 -16 -6 -16 -6 -16 -5 -16 -5 -17 -5 -17 -5 -17 -4 -18 -3 -17 -4 -18 -3 -18 -2 -18 -3 -19 -2 -18 -1 -19 -1 -19 -1 -20 -1 -19 0 -20 0 0zm191 -557l82 87 0 0 -10 11 -9 11 -9 11 -9 11 -8 12 -8 12 -8 12 -8 13 -7 12 -7 13 -6 13 -7 14 -6 13 -5 14 -6 14 -5 15 -5 15 -4 15 -4 15 -4 15 -4 16 -3 16 -3 17 -3 16 -2 17 -2 18 -2 17 -2 18 -1 18 0 18 -1 19 0 19 -115 0 0 -21 1 -21 1 -21 1 -21 2 -20 2 -20 2 -20 3 -19 3 -20 3 -19 4 -19 5 -18 4 -19 5 -18 6 -18 5 -17 6 -18 7 -17 7 -17 7 -17 8 -16 8 -16 8 -16 9 -15 9 -15 10 -15 10 -15 10 -14 11 -15 11 -13 12 -14 11 -13 0 0zm445 -208l0 124 0 0 -13 0 -13 0 -13 1 -12 1 -12 2 -13 1 -12 3 -12 2 -12 3 -12 3 -11 4 -12 3 -12 4 -11 5 -11 5 -12 5 -11 5 -11 6 -11 6 -11 7 -11 6 -11 8 -11 7 -10 8 -11 8 -10 9 -11 9 -10 9 -11 10 -10 10 -10 10 -10 11 -82 -87 12 -13 12 -12 12 -12 12 -11 13 -11 12 -11 13 -10 13 -10 13 -10 13 -9 13 -8 13 -9 14 -8 14 -7 13 -8 14 -6 14 -7 15 -6 14 -5 14 -5 15 -5 14 -4 15 -4 15 -4 15 -3 15 -3 15 -2 16 -2 15 -1 15 -1 16 -1 16 0 0 0zm425 194l-80 88 0 0 -10 -10 -9 -10 -10 -9 -10 -9 -9 -9 -10 -8 -10 -8 -10 -7 -11 -8 -10 -6 -10 -7 -10 -6 -11 -6 -10 -6 -11 -5 -10 -5 -11 -5 -11 -5 -11 -4 -11 -3 -11 -4 -11 -3 -12 -3 -11 -3 -12 -2 -11 -2 -12 -2 -12 -1 -12 -1 -12 -1 -12 0 -12 0 0 -124 15 0 15 1 15 1 14 1 15 2 15 2 14 2 14 3 15 4 14 3 14 4 14 5 14 4 13 6 14 5 13 6 14 6 13 7 13 7 13 8 13 7 12 8 13 9 12 9 13 9 12 10 12 10 12 10 11 11 12 11 11 11 11 12 0 0zm183 519l-114 0 0 0 -1 -18 0 -17 -1 -17 -1 -16 -1 -17 -2 -16 -2 -16 -2 -15 -2 -15 -3 -15 -3 -15 -4 -15 -3 -14 -4 -14 -5 -14 -4 -13 -5 -13 -5 -13 -5 -13 -6 -12 -6 -13 -6 -12 -7 -12 -6 -11 -7 -12 -8 -11 -7 -11 -8 -10 -9 -11 -8 -10 -9 -10 -9 -10 80 -88 12 12 11 13 10 12 11 14 9 13 10 14 9 14 9 14 8 14 8 15 8 15 8 15 7 16 6 15 6 16 6 17 6 16 5 17 5 17 4 17 4 17 4 18 3 18 3 18 3 18 2 18 2 19 2 19 1 19 1 19 0 20 0 20 0 0zm-388 -331l83 -85 0 0 9 10 8 11 9 10 8 11 7 11 8 12 7 11 7 12 6 12 6 13 6 12 6 13 5 13 5 14 5 13 5 14 4 14 4 14 4 14 3 15 3 14 3 15 2 16 3 15 2 15 1 16 2 16 1 16 1 16 1 17 0 17 0 17 -115 0 0 -15 0 -15 -1 -14 0 -14 -1 -14 -2 -14 -1 -13 -2 -13 -2 -13 -2 -12 -2 -13 -3 -12 -2 -11 -3 -12 -4 -11 -3 -11 -4 -11 -3 -11 -4 -10 -4 -10 -5 -10 -4 -10 -5 -9 -5 -9 -5 -9 -6 -9 -5 -9 -6 -8 -6 -8 -6 -8 -6 -8 -7 -8 0 0zm83 -85l0 0 0 0 0 0zm-330 -36l0 -123 0 0 11 0 12 1 12 0 11 2 11 1 12 2 11 2 11 2 11 3 11 3 11 3 11 4 11 4 10 4 11 5 10 4 11 6 10 5 10 6 10 6 10 6 10 7 10 7 9 7 10 8 9 8 9 8 9 8 10 9 8 9 9 9 9 10 -83 85 -7 -7 -7 -8 -7 -7 -7 -7 -7 -6 -8 -7 -7 -6 -7 -6 -7 -5 -8 -5 -7 -5 -8 -5 -7 -5 -8 -4 -7 -4 -8 -4 -7 -4 -8 -3 -8 -3 -8 -3 -8 -3 -8 -2 -8 -2 -8 -2 -8 -2 -8 -1 -8 -2 -9 -1 -8 0 -9 -1 -8 0 -9 -1 0 0zm-226 126l-87 -80 0 0 8 -10 8 -10 9 -9 8 -10 9 -8 9 -9 8 -8 9 -8 9 -8 10 -7 9 -8 9 -6 10 -7 9 -6 10 -6 10 -5 10 -6 10 -5 10 -4 10 -4 10 -4 11 -4 10 -3 11 -3 11 -3 10 -2 11 -2 11 -1 11 -1 11 -1 11 -1 11 0 0 123 -8 1 -8 0 -7 1 -8 0 -7 1 -8 2 -7 1 -7 2 -8 2 -7 2 -7 3 -7 2 -7 3 -7 3 -7 4 -7 4 -7 4 -7 4 -7 4 -7 5 -7 5 -7 5 -6 6 -7 5 -7 7 -7 6 -7 7 -6 7 -7 7 -7 7 -6 8 -7 8 0 0zm-104 354l-115 0 0 0 0 -16 0 -16 1 -16 1 -16 1 -16 1 -15 2 -15 2 -16 2 -14 2 -15 3 -15 3 -14 3 -15 3 -14 4 -14 4 -13 4 -14 5 -13 5 -14 5 -13 5 -12 5 -13 6 -13 6 -12 7 -12 6 -12 7 -11 8 -12 7 -11 8 -11 8 -11 8 -10 87 80 -6 8 -7 9 -5 8 -6 9 -6 9 -5 9 -5 9 -5 9 -5 9 -4 10 -5 10 -4 10 -4 10 -4 11 -3 11 -4 10 -3 12 -3 11 -3 11 -2 12 -3 12 -2 12 -2 12 -2 13 -1 13 -2 13 -1 13 -1 13 -1 14 0 14 0 14 0 14 0 0zm109 354l-82 86 0 0 -9 -10 -9 -11 -8 -11 -8 -10 -8 -12 -7 -11 -7 -12 -7 -12 -7 -12 -6 -12 -6 -13 -6 -13 -5 -13 -5 -13 -5 -14 -5 -13 -4 -14 -4 -14 -4 -15 -3 -14 -3 -15 -3 -15 -3 -15 -2 -16 -2 -15 -2 -16 -1 -16 -1 -16 -1 -16 -1 -17 0 -17 0 -17 115 0 0 15 0 15 1 14 0 14 1 14 2 14 1 13 2 13 2 13 2 13 2 12 3 12 2 12 3 11 4 12 3 11 3 11 4 10 4 11 4 10 5 10 4 9 5 10 5 9 5 9 6 9 5 8 6 9 6 8 6 8 7 7 6 8 0 0zm248 121l0 124 0 0 -12 0 -11 -1 -12 -1 -11 -1 -12 -1 -11 -2 -11 -2 -11 -2 -11 -3 -11 -3 -11 -3 -11 -4 -11 -4 -10 -4 -11 -5 -10 -5 -11 -5 -10 -5 -10 -6 -10 -6 -10 -7 -10 -6 -10 -7 -9 -8 -10 -7 -9 -8 -10 -8 -9 -9 -9 -8 -9 -9 -9 -10 -8 -9 82 -86 7 8 7 7 8 7 7 7 7 7 7 6 8 6 7 6 7 6 8 5 7 5 8 5 7 5 8 4 7 4 8 4 7 3 8 4 8 3 8 3 8 2 8 3 7 2 8 2 9 2 8 1 8 2 8 1 9 0 8 1 9 0 9 0 0 0zm225 -127l88 80 0 0 -8 10 -9 10 -8 9 -9 9 -8 9 -9 9 -9 9 -9 8 -9 8 -9 7 -9 7 -9 7 -10 7 -9 6 -10 6 -10 6 -10 5 -10 5 -10 5 -10 4 -11 4 -10 4 -11 3 -10 3 -11 2 -11 3 -10 2 -11 1 -11 1 -11 1 -11 1 -11 0 0 -124 7 0 8 0 8 -1 7 0 8 -2 7 -1 7 -1 8 -2 7 -2 7 -2 7 -3 7 -3 7 -3 7 -3 7 -3 7 -4 7 -4 7 -4 7 -5 7 -5 7 -5 7 -5 7 -6 6 -5 7 -7 7 -6 7 -7 6 -7 7 -7 7 -8 6 -8 7 -8 0 0zm104 -353l115 0 0 0 0 16 0 16 -1 15 -1 16 -1 16 -1 15 -2 15 -2 15 -2 15 -2 15 -3 14 -3 15 -3 14 -3 14 -4 14 -4 14 -4 13 -5 13 -5 14 -5 13 -5 12 -5 13 -6 12 -6 13 -7 12 -6 12 -7 11 -7 12 -8 11 -7 11 -8 11 -8 11 -88 -80 6 -8 7 -9 5 -8 6 -9 6 -9 5 -9 5 -9 5 -10 5 -9 4 -10 5 -10 4 -10 4 -10 4 -11 3 -11 4 -10 3 -11 3 -12 3 -11 2 -12 3 -12 2 -12 2 -12 2 -12 1 -13 2 -13 1 -13 1 -13 0 -14 1 -13 0 -14 0 -14 0 0zm1623 311l-84 -85 1 0 6 -8 7 -8 6 -8 6 -8 6 -8 6 -9 5 -8 5 -9 5 -8 5 -9 5 -9 4 -9 4 -9 4 -9 4 -9 3 -10 4 -9 3 -10 2 -9 3 -10 3 -10 2 -10 2 -10 2 -11 1 -10 2 -11 1 -10 1 -11 1 -11 0 -11 0 -11 1 -12 114 0 0 14 0 14 -1 14 -1 13 -1 14 -2 13 -1 14 -2 13 -3 13 -2 13 -3 13 -3 13 -4 13 -3 12 -4 13 -5 12 -4 12 -5 12 -5 12 -6 12 -5 12 -6 11 -6 11 -7 12 -7 11 -6 11 -8 10 -7 11 -8 10 -8 11 -8 10 -9 10 0 0zm-84 -85l1 0 0 0 -1 0zm-284 207l-115 0 53 -61 15 -2 15 -1 15 -2 14 -2 14 -3 14 -2 14 -3 13 -3 13 -3 12 -3 13 -4 12 -4 12 -4 11 -4 11 -4 11 -5 11 -4 10 -5 10 -5 10 -6 9 -5 10 -6 9 -6 8 -6 9 -6 8 -6 8 -7 7 -6 8 -7 7 -7 7 -7 6 -8 84 85 -9 10 -9 9 -10 10 -10 9 -10 9 -11 9 -10 8 -11 8 -12 8 -11 8 -12 7 -12 7 -13 7 -12 6 -13 6 -13 6 -14 5 -13 6 -14 5 -14 4 -14 5 -15 4 -15 4 -15 4 -15 3 -15 3 -16 3 -16 3 -16 2 -17 2 -17 2 -17 2 53 -62zm-115 0l0 -57 53 -4 -53 61zm63 270l0 -124 -57 65 0 -8 -1 -8 0 -8 0 -8 -1 -8 0 -8 0 -7 0 -8 -1 -7 0 -8 0 -7 0 -7 -1 -7 0 -7 0 -6 0 -7 0 -6 -1 -7 0 -6 0 -6 0 -7 0 -5 0 -6 0 -6 0 -6 0 -5 0 -6 -1 -5 0 -6 0 -5 0 -5 0 -5 115 0 0 5 0 5 0 5 0 5 0 5 0 5 0 5 0 6 1 5 0 6 0 6 0 6 0 6 0 6 0 6 1 6 0 7 0 7 0 6 0 7 1 7 0 7 0 7 0 7 1 8 0 7 0 8 0 7 1 8 0 8 0 8 1 8 -58 65zm58 -65l3 65 -61 0 58 -65zm-220 -59l162 0 0 124 -162 0 -58 -65 58 -59zm0 124l-61 0 3 -65 58 65zm2 -208l7 -123 54 61 0 7 0 6 0 6 0 7 0 6 0 7 0 6 -1 7 0 6 0 7 0 6 0 7 0 6 0 7 0 6 -1 7 0 7 0 6 0 7 0 7 -1 6 0 7 0 7 0 6 -1 7 0 7 0 7 -1 6 0 7 0 7 -1 7 0 7 -115 -7 1 -7 0 -7 0 -6 1 -7 0 -6 0 -7 1 -7 0 -6 0 -7 0 -6 1 -6 0 -7 0 -6 0 -7 0 -6 1 -7 0 -6 0 -6 0 -7 0 -6 0 -6 1 -7 0 -6 0 -6 0 -6 0 -7 0 -6 0 -6 0 -6 0 -6 0 -7 0 -6 54 62zm7 -123l54 3 0 58 -54 -61zm-430 -35l80 -89 0 0 6 7 7 6 7 6 7 6 7 6 8 5 8 6 8 5 9 5 9 5 9 5 9 5 10 4 10 5 11 4 11 4 11 4 11 4 12 3 12 4 12 3 12 3 13 2 14 3 13 2 14 3 14 2 15 1 14 2 15 1 16 2 16 1 -7 123 -17 -1 -17 -2 -16 -1 -17 -2 -16 -2 -16 -2 -16 -3 -15 -2 -15 -3 -15 -4 -15 -3 -14 -4 -14 -4 -14 -4 -14 -4 -13 -5 -13 -5 -13 -5 -13 -6 -12 -5 -12 -6 -12 -7 -12 -6 -11 -7 -11 -7 -11 -8 -11 -7 -10 -8 -10 -9 -10 -8 -9 -9 -9 -9 0 0zm80 -89l0 0 -2 -1 2 1zm-219 -273l115 0 0 0 0 10 0 11 1 10 0 10 1 10 1 10 2 10 1 9 2 10 2 9 2 9 2 9 3 9 3 9 3 8 3 9 3 8 4 8 3 8 4 8 4 8 5 8 4 8 5 8 5 7 5 7 6 8 5 7 6 7 6 7 6 7 7 7 -80 89 -8 -9 -9 -9 -7 -9 -8 -10 -8 -9 -7 -10 -7 -10 -7 -10 -6 -11 -6 -10 -6 -11 -6 -11 -5 -11 -5 -11 -5 -11 -4 -11 -5 -12 -4 -12 -3 -11 -4 -12 -3 -12 -3 -12 -2 -13 -3 -12 -2 -13 -1 -12 -2 -13 -1 -13 -1 -13 -1 -13 0 -13 0 -13 0 0zm140 -389l83 85 0 -1 -6 8 -7 8 -6 9 -6 8 -6 8 -6 8 -5 9 -5 8 -5 9 -5 9 -5 9 -4 9 -4 9 -4 9 -4 9 -3 9 -3 10 -3 9 -3 10 -3 10 -2 10 -3 10 -2 10 -1 10 -2 11 -1 10 -2 11 -1 11 0 11 -1 11 0 11 0 12 -115 0 0 -14 0 -14 1 -14 1 -14 1 -13 2 -14 2 -13 2 -13 2 -13 2 -13 3 -13 3 -13 4 -13 4 -12 4 -13 4 -12 4 -12 5 -12 5 -12 6 -12 5 -12 6 -11 6 -11 7 -12 6 -11 7 -11 8 -10 7 -11 8 -10 8 -11 8 -10 9 -10 0 0zm0 0l0 0 0 -1 0 1zm368 -122l115 0 -53 61 -15 2 -15 1 -15 2 -14 2 -14 3 -14 2 -14 3 -13 3 -13 3 -12 3 -13 4 -12 3 -12 4 -11 5 -11 4 -11 4 -11 5 -10 5 -10 5 -10 5 -9 6 -10 5 -9 6 -8 6 -9 6 -8 7 -8 6 -7 7 -8 7 -7 7 -7 7 -7 8 -83 -85 9 -10 9 -10 10 -9 10 -10 10 -9 11 -8 10 -9 12 -8 11 -8 11 -7 12 -7 12 -7 13 -7 12 -6 13 -6 13 -6 14 -6 13 -5 14 -5 14 -5 15 -4 14 -4 15 -4 15 -4 15 -3 16 -3 16 -3 16 -3 16 -2 16 -2 17 -2 17 -2 -53 62zm115 0l0 57 -53 4 53 -61zm-63 -225l0 124 57 -67 0 5 1 5 0 5 0 5 1 5 0 5 0 5 1 5 0 5 0 5 0 5 1 5 0 6 0 5 0 5 0 5 1 5 0 6 0 5 0 5 0 6 0 5 0 5 0 6 1 5 0 6 0 5 0 6 0 5 0 6 0 5 0 6 -115 0 0 -6 0 -5 0 -5 0 -5 0 -6 0 -5 0 -5 0 -5 0 -5 0 -5 -1 -5 0 -5 0 -5 0 -5 0 -5 0 -5 0 -5 -1 -5 0 -5 0 -5 0 -5 -1 -4 0 -5 0 -5 0 -4 -1 -5 0 -5 0 -5 0 -4 -1 -5 0 -4 0 -5 57 -67zm-57 67l-5 -67 62 0 -57 67zm219 57l-162 0 0 -124 162 0 58 66 -58 58zm0 -124l62 0 -4 66 -58 -66zm-2 163l-6 123 -55 -63 0 -6 1 -6 0 -6 0 -6 0 -5 0 -6 0 -6 0 -6 1 -5 0 -6 0 -5 0 -6 0 -5 0 -5 1 -6 0 -5 0 -5 0 -5 0 -5 1 -5 0 -5 0 -5 0 -4 0 -5 1 -5 0 -4 0 -5 0 -4 0 -5 1 -4 0 -5 0 -4 115 8 0 4 -1 4 0 4 0 4 0 5 -1 4 0 4 0 5 0 4 0 5 -1 5 0 4 0 5 0 5 0 5 -1 5 0 5 0 5 0 5 0 5 0 6 -1 5 0 5 0 6 0 5 0 6 0 6 0 5 0 6 -1 6 0 6 0 6 -54 -63zm-6 123l-56 -3 1 -60 55 63zm429 35l-80 89 0 0 -6 -7 -7 -6 -7 -6 -7 -6 -7 -6 -8 -5 -8 -6 -8 -5 -9 -5 -9 -5 -9 -5 -9 -5 -10 -5 -10 -4 -11 -4 -11 -4 -11 -4 -11 -4 -12 -3 -11 -4 -13 -3 -12 -3 -13 -3 -13 -2 -14 -3 -14 -2 -14 -2 -14 -1 -15 -2 -15 -1 -16 -2 -15 -1 6 -123 17 1 17 1 17 2 16 2 16 2 16 2 16 3 15 2 15 3 15 3 15 4 14 4 14 3 14 5 14 4 13 5 13 5 13 5 13 6 12 5 13 6 11 7 12 6 11 7 11 7 11 8 11 7 10 8 10 8 10 9 9 9 9 9 0 0zm139 362l-114 0 0 0 -1 -10 0 -11 0 -10 -1 -10 -1 -10 -1 -10 -2 -10 -1 -9 -2 -10 -2 -9 -2 -9 -2 -9 -3 -9 -3 -9 -2 -8 -4 -9 -3 -8 -3 -8 -4 -9 -4 -8 -4 -7 -5 -8 -4 -8 -5 -8 -5 -7 -5 -7 -5 -8 -6 -7 -6 -7 -6 -7 -6 -7 -7 -7 80 -89 9 9 8 9 8 9 7 10 8 9 7 10 7 10 7 10 6 11 6 10 6 11 6 11 5 10 5 12 5 11 5 11 4 12 4 11 3 12 4 12 3 12 3 12 2 12 3 13 2 12 2 13 1 13 1 13 1 13 1 13 0 13 0 13 0 0zm-512 -339l-114 -3 63 -60 23 3 24 3 22 5 22 4 22 6 20 6 20 7 20 7 19 9 18 9 18 10 17 10 16 11 15 13 15 12 14 14 13 14 13 15 11 16 11 17 10 17 9 18 8 18 7 19 7 20 5 20 4 20 4 21 3 22 2 22 1 22 1 23 -115 0 -1 -18 0 -18 -2 -17 -2 -16 -3 -15 -3 -15 -4 -14 -4 -13 -5 -13 -5 -13 -6 -11 -7 -11 -7 -11 -7 -10 -8 -10 -9 -10 -9 -9 -10 -8 -11 -9 -11 -8 -12 -7 -13 -7 -14 -7 -14 -6 -15 -6 -16 -6 -17 -5 -18 -4 -18 -4 -19 -4 -20 -3 -21 -2 63 -60zm-114 -3l1 -67 62 7 -63 60zm110 347l-115 0 0 0 0 -10 0 -11 0 -11 0 -10 0 -11 0 -11 0 -11 0 -10 0 -11 1 -11 0 -11 0 -10 0 -11 0 -11 0 -11 0 -11 0 -11 1 -11 0 -10 0 -11 0 -11 0 -11 0 -11 1 -11 0 -11 0 -11 0 -11 1 -11 0 -11 0 -11 0 -11 1 -11 114 3 0 11 0 11 0 11 -1 11 0 11 0 11 0 10 -1 11 0 11 0 11 0 11 0 11 -1 11 0 10 0 11 0 11 0 11 0 10 0 11 0 11 -1 11 0 10 0 11 0 11 0 10 0 11 0 10 0 11 0 11 0 10 0 11 0 10 0 0zm-58 327l10 123 -62 -60 -1 -13 0 -13 0 -13 0 -13 -1 -12 0 -13 0 -13 0 -12 -1 -13 0 -12 0 -12 0 -13 0 -12 0 -13 -1 -12 0 -12 0 -12 0 -12 0 -12 0 -12 0 -12 0 -12 -1 -12 0 -12 0 -12 0 -11 0 -12 0 -12 0 -11 0 -12 0 -11 0 -12 115 0 0 12 0 11 0 11 0 12 0 11 0 12 0 12 0 11 0 12 0 12 0 12 1 12 0 11 0 12 0 12 0 13 0 12 0 12 0 12 1 12 0 13 0 12 0 12 0 13 1 12 0 13 0 12 0 13 1 13 0 12 0 13 0 13 -62 -60zm10 123l-61 5 -1 -65 62 60zm300 -424l115 0 0 0 -1 23 -1 22 -2 21 -3 22 -4 21 -4 20 -6 20 -6 19 -7 19 -8 18 -9 18 -10 17 -11 16 -12 16 -12 14 -13 15 -14 13 -15 12 -16 12 -16 11 -17 10 -18 10 -18 8 -19 8 -19 8 -21 6 -20 6 -22 5 -22 4 -22 4 -24 3 -23 3 -10 -123 21 -2 20 -3 19 -3 18 -4 18 -4 17 -5 16 -5 15 -5 14 -7 14 -6 12 -7 12 -7 12 -8 10 -8 10 -8 9 -9 9 -9 8 -9 8 -10 7 -11 6 -11 6 -11 5 -12 5 -13 4 -13 4 -14 3 -14 3 -15 2 -16 2 -17 0 -17 1 -18 0 0zm-444 -310l-10 -123 62 60 1 13 0 13 0 13 0 12 0 13 1 13 0 12 0 13 0 12 0 13 0 12 1 13 0 12 0 12 0 13 0 12 0 12 0 12 0 12 1 12 0 12 0 12 0 12 0 12 0 12 0 11 0 12 0 12 0 11 0 12 0 11 0 12 -115 0 0 -12 0 -11 0 -11 0 -12 0 -12 0 -11 0 -12 0 -12 0 -11 0 -12 0 -12 0 -12 0 -12 0 -12 -1 -12 0 -12 0 -12 0 -12 0 -12 0 -13 0 -12 0 -12 -1 -13 0 -12 0 -13 0 -12 0 -13 -1 -12 0 -13 0 -13 0 -13 0 -12 62 60zm-10 -123l61 -6 1 66 -62 -60zm-300 424l-114 0 0 0 0 -23 1 -22 2 -22 3 -21 4 -21 4 -20 6 -20 6 -19 7 -19 8 -18 9 -18 10 -17 11 -16 12 -16 12 -15 13 -14 15 -13 14 -13 16 -11 16 -11 17 -11 18 -9 18 -9 19 -8 19 -7 21 -6 20 -6 22 -5 22 -5 22 -3 23 -4 24 -2 10 123 -21 2 -20 3 -19 3 -18 4 -18 4 -17 5 -15 5 -16 5 -14 6 -13 7 -13 7 -12 7 -12 7 -10 8 -10 9 -9 9 -9 9 -8 9 -7 10 -7 11 -7 11 -6 11 -5 12 -5 12 -4 14 -4 13 -3 15 -3 15 -2 16 -1 17 -1 17 -1 18 0 0zm248 370l114 3 -63 60 -24 -3 -23 -4 -22 -4 -22 -5 -22 -5 -20 -6 -20 -7 -20 -8 -19 -8 -18 -9 -18 -10 -17 -10 -16 -12 -15 -12 -15 -13 -14 -13 -13 -15 -13 -15 -11 -16 -11 -16 -10 -17 -9 -18 -8 -18 -7 -19 -6 -20 -6 -20 -4 -21 -4 -21 -3 -21 -2 -22 -1 -22 0 -23 114 0 1 18 1 17 1 17 2 16 3 16 3 15 4 14 4 13 5 13 6 12 6 12 6 11 7 11 7 10 8 10 9 10 9 9 10 8 11 8 11 8 12 8 13 7 14 7 14 6 15 6 16 5 17 5 18 5 18 4 19 3 20 3 21 3 -63 60zm114 3l-1 66 -62 -6 63 -60zm-111 -347l115 0 0 0 0 10 0 11 0 11 0 10 0 11 0 11 0 11 0 10 0 11 0 11 0 11 0 10 -1 11 0 11 0 11 0 11 0 10 0 11 0 11 0 11 -1 11 0 11 0 11 0 11 0 11 0 11 -1 11 0 11 0 11 0 11 0 11 -1 11 -114 -3 0 -11 0 -11 0 -11 0 -11 1 -11 0 -11 0 -11 0 -11 0 -10 1 -11 0 -11 0 -11 0 -11 0 -10 0 -11 0 -11 0 -11 1 -10 0 -11 0 -11 0 -11 0 -10 0 -11 0 -10 0 -11 0 -11 0 -10 0 -11 0 -10 0 -11 0 -11 0 -10 0 0zm1866 609l175 0 0 124 -175 0 -58 -67 58 -57zm0 124l-62 0 4 -67 58 67zm-45 -613l115 0 0 0 0 23 0 23 0 22 0 22 0 21 0 21 -1 21 0 20 0 20 0 20 0 19 -1 19 0 18 0 19 -1 17 0 18 -1 17 0 17 0 16 -1 17 0 15 -1 16 -1 15 0 15 -1 14 -1 14 0 14 -1 13 -1 13 0 13 -1 12 -1 12 -115 -10 1 -11 1 -12 1 -12 0 -12 1 -13 1 -13 0 -14 1 -14 1 -14 0 -15 1 -15 0 -16 1 -15 0 -17 1 -16 0 -17 0 -17 1 -18 0 -18 0 -18 1 -19 0 -19 0 -19 0 -20 1 -20 0 -21 0 -21 0 -21 0 -22 0 -22 0 -22 0 -23 0 0zm63 -366l0 -123 58 63 -1 16 0 16 0 16 -1 15 0 16 0 15 -1 15 0 15 0 14 0 15 -1 14 0 14 0 14 0 14 0 14 -1 13 0 13 0 14 0 12 0 13 0 13 0 12 -1 12 0 12 0 12 0 12 0 11 0 11 0 11 0 11 0 11 0 10 -115 0 0 -10 0 -11 0 -11 0 -11 0 -12 0 -11 0 -12 1 -12 0 -12 0 -12 0 -13 0 -12 0 -13 0 -13 0 -13 1 -14 0 -13 0 -14 0 -14 0 -14 1 -14 0 -14 0 -15 0 -15 1 -15 0 -15 0 -15 1 -15 0 -16 0 -16 1 -16 0 -16 57 63zm0 -123l59 0 -1 63 -58 -63zm-9 0l9 0 0 123 -9 0 -54 -82 54 -41zm-54 41l13 -41 41 0 -54 41zm-247 566l-89 -78 0 0 20 -25 18 -25 18 -24 18 -23 17 -23 16 -22 16 -21 16 -21 14 -20 15 -19 13 -19 13 -19 13 -17 12 -17 11 -17 11 -16 10 -15 10 -14 9 -14 9 -14 8 -12 7 -12 7 -12 6 -10 6 -10 5 -9 5 -9 4 -8 3 -6 2 -6 2 -5 2 -4 108 41 -3 9 -4 9 -4 10 -5 10 -5 10 -6 11 -6 11 -6 11 -7 12 -8 13 -8 13 -9 13 -9 14 -9 15 -11 15 -10 16 -12 17 -11 17 -13 17 -13 18 -13 19 -14 19 -14 20 -15 21 -16 21 -16 22 -17 22 -17 23 -18 23 -18 24 -19 25 -19 25 0 0zm-336 495l0 -124 -58 62 1 -12 1 -11 3 -12 2 -11 4 -11 4 -11 4 -11 5 -12 6 -12 6 -12 6 -13 7 -13 8 -14 8 -14 9 -15 9 -15 10 -15 10 -16 11 -17 11 -17 12 -18 13 -18 13 -19 13 -19 15 -20 14 -20 16 -21 15 -21 17 -22 17 -23 17 -23 18 -23 89 78 -18 23 -17 23 -17 22 -16 22 -15 21 -15 20 -15 20 -13 19 -14 19 -12 18 -12 17 -12 17 -11 16 -10 16 -9 15 -9 15 -9 14 -8 13 -7 12 -7 12 -6 12 -5 10 -5 10 -4 9 -4 9 -3 7 -2 7 -2 5 -1 5 -1 3 0 2 0 0 -57 62zm57 -62l0 62 -57 0 57 -62zm-187 -62l130 0 0 124 -130 0 -57 -66 57 -58zm0 124l-61 0 4 -66 57 66zm-41 -674l115 0 0 0 0 22 0 22 -1 21 0 21 0 22 0 21 0 21 0 20 -1 21 0 20 0 20 -1 20 0 20 0 20 -1 19 0 20 -1 19 0 19 -1 19 -1 18 0 19 -1 18 -1 18 0 18 -1 18 -1 18 -1 17 -1 18 0 17 -1 17 -1 16 -1 17 -115 -8 1 -16 1 -17 1 -16 1 -17 1 -17 0 -17 1 -18 1 -17 1 -18 0 -18 1 -18 1 -18 0 -19 1 -18 0 -19 1 -19 0 -19 1 -19 0 -20 1 -19 0 -20 0 -20 1 -20 0 -20 0 -21 0 -21 0 -20 1 -21 0 -22 0 -21 0 -21 0 -22 0 0zm41 -739l0 123 58 -65 1 21 1 20 1 20 0 21 1 20 1 21 1 21 1 20 0 21 1 21 1 21 0 21 1 21 1 21 0 21 1 21 0 22 1 21 0 21 0 22 1 22 0 21 0 22 1 22 0 21 0 22 0 22 0 22 0 22 1 22 0 23 0 22 -115 0 0 -22 0 -22 0 -22 0 -22 -1 -22 0 -22 0 -21 0 -22 0 -21 -1 -22 0 -21 0 -22 -1 -21 0 -21 -1 -21 0 -22 -1 -21 0 -21 -1 -20 0 -21 -1 -21 -1 -21 0 -20 -1 -21 -1 -21 -1 -20 0 -20 -1 -21 -1 -20 -1 -20 -1 -20 -1 -20 57 -65zm-57 65l-3 -65 60 0 -57 65zm231 58l-174 0 0 -123 174 0 58 65 -58 58zm0 -123l61 0 -3 65 -58 -65zm45 662l-115 0 0 0 0 -21 0 -21 0 -20 0 -21 0 -20 0 -20 0 -20 1 -20 0 -20 0 -19 0 -20 1 -19 0 -20 0 -19 1 -19 0 -19 0 -19 1 -18 0 -19 1 -18 0 -19 1 -18 0 -18 1 -18 1 -18 0 -17 1 -18 1 -17 1 -18 0 -17 1 -17 1 -17 115 7 -1 16 -1 17 -1 17 -1 17 0 17 -1 18 -1 17 0 18 -1 17 0 18 -1 18 0 18 -1 18 0 19 -1 18 0 19 -1 19 0 18 0 19 -1 20 0 19 0 19 0 20 -1 19 0 20 0 20 0 20 0 20 0 20 0 21 0 20 0 21 0 0zm-66 316l0 124 -58 -64 1 -13 0 -13 1 -13 0 -13 1 -12 0 -13 1 -12 0 -13 0 -12 1 -12 0 -12 1 -12 0 -12 0 -12 0 -12 1 -12 0 -12 0 -11 0 -12 1 -11 0 -12 0 -11 0 -11 0 -11 0 -11 1 -11 0 -11 0 -11 0 -11 0 -11 0 -10 0 -11 115 0 0 11 0 11 0 11 0 10 -1 12 0 11 0 11 0 11 0 12 0 11 0 12 -1 11 0 12 0 11 0 12 -1 12 0 12 0 12 0 12 -1 12 0 13 0 12 -1 12 0 13 -1 12 0 13 0 12 -1 13 0 13 -1 13 0 13 -1 13 -57 -65zm0 124l-60 0 2 -64 58 64zm10 0l-10 0 0 -124 10 0 53 86 -53 38zm53 -38l-15 38 -38 0 53 -38zm257 -568l88 80 0 0 -20 25 -18 24 -19 24 -18 23 -17 22 -16 22 -17 22 -15 20 -15 20 -15 20 -14 19 -13 18 -13 18 -12 17 -12 16 -11 16 -10 15 -11 15 -9 14 -9 13 -8 13 -8 12 -7 11 -7 11 -6 10 -5 9 -5 8 -5 8 -3 7 -3 6 -2 6 -2 4 -106 -47 3 -9 4 -9 5 -9 5 -10 5 -10 6 -10 6 -11 7 -11 8 -12 7 -13 9 -13 9 -13 9 -14 10 -15 11 -15 11 -15 11 -17 12 -17 13 -17 13 -18 13 -19 15 -19 14 -20 16 -20 15 -21 17 -22 17 -22 17 -23 18 -23 18 -24 19 -24 20 -26 0 0zm330 -496l0 123 57 -62 0 13 -1 11 -2 12 -3 12 -3 11 -4 12 -5 12 -4 12 -6 13 -6 13 -6 13 -7 14 -8 14 -8 14 -8 15 -9 15 -10 16 -10 16 -11 17 -11 17 -12 17 -12 18 -13 19 -13 19 -14 20 -15 20 -15 20 -15 21 -16 21 -17 22 -17 23 -18 23 -88 -80 17 -22 17 -22 16 -21 16 -21 15 -21 15 -20 14 -19 13 -19 13 -18 13 -18 11 -17 11 -17 11 -16 10 -15 9 -15 9 -15 9 -14 7 -13 7 -13 7 -12 6 -11 5 -11 5 -10 4 -10 3 -9 3 -8 2 -7 2 -6 1 -5 1 -5 1 -3 0 -2 57 -61zm-57 61l0 -61 57 0 -57 61zm187 62l-130 0 0 -123 130 0 58 64 -58 59zm0 -123l60 0 -2 64 -58 -64zm44 739l-115 0 0 0 0 -22 0 -22 0 -23 0 -22 0 -22 0 -22 1 -22 0 -21 0 -22 0 -22 1 -21 0 -22 0 -21 1 -22 0 -21 0 -21 1 -22 0 -21 1 -21 0 -21 1 -21 1 -21 0 -21 1 -21 1 -20 0 -21 1 -20 1 -21 0 -20 1 -21 1 -20 1 -20 115 5 -1 20 -1 21 -1 20 -1 20 0 20 -1 21 -1 20 0 21 -1 20 -1 21 0 21 -1 20 0 21 -1 21 0 21 -1 21 0 21 -1 22 0 21 0 21 -1 21 0 22 0 21 0 22 -1 22 0 21 0 22 0 22 0 22 0 22 0 22 0 22 0 0zm-44 674l0 -124 -57 66 -1 -17 -1 -17 0 -17 -1 -17 -1 -17 -1 -18 0 -17 -1 -18 -1 -18 0 -18 -1 -19 -1 -18 0 -19 -1 -18 0 -19 -1 -20 0 -19 0 -19 -1 -20 0 -20 0 -20 -1 -20 0 -20 0 -21 0 -21 -1 -20 0 -21 0 -22 0 -21 0 -21 0 -22 0 -22 115 0 0 22 0 21 0 22 0 21 0 21 0 21 0 20 1 21 0 20 0 20 0 20 1 20 0 20 0 19 1 19 0 19 1 19 0 19 1 19 0 18 1 18 0 18 1 18 1 18 0 18 1 17 1 17 0 17 1 17 1 17 1 16 1 17 -58 65zm58 -65l3 65 -61 0 58 -65zm1199 -12l12 -148 114 11 -12 148 -40 53 -74 -64zm114 11l-3 41 -37 12 40 -53zm-304 93l0 -124 0 0 8 0 8 0 7 0 8 0 8 -1 7 0 8 0 8 -1 7 -1 8 0 7 -1 7 -1 8 0 7 -1 7 -1 8 -1 7 -1 7 -2 7 -1 7 -1 7 -2 7 -1 7 -1 7 -2 7 -2 7 -1 6 -2 7 -2 7 -2 7 -2 6 -2 7 -2 33 118 -8 3 -8 2 -8 2 -7 3 -8 2 -8 2 -8 2 -8 2 -8 1 -8 2 -8 2 -8 1 -8 2 -8 1 -8 2 -9 1 -8 1 -8 1 -9 1 -8 1 -8 1 -9 1 -8 1 -9 0 -8 1 -9 0 -9 1 -8 0 -9 0 -9 0 -8 1 -9 0 0 0zm-520 -207l84 -84 0 0 9 11 10 9 9 10 10 9 10 9 10 8 11 8 10 8 12 8 11 7 12 7 12 7 12 6 13 6 13 6 13 5 14 5 14 5 14 5 15 4 15 4 15 3 16 3 16 3 16 3 17 2 17 2 17 1 18 2 18 0 18 1 19 0 0 124 -21 -1 -20 0 -21 -1 -19 -1 -20 -2 -19 -2 -19 -3 -19 -3 -19 -3 -18 -4 -18 -4 -17 -5 -18 -4 -17 -6 -17 -6 -16 -6 -16 -6 -16 -7 -16 -8 -15 -8 -15 -8 -15 -9 -14 -9 -14 -9 -14 -10 -14 -11 -13 -11 -12 -11 -13 -12 -12 -12 -12 -12 -11 -13 0 0zm-175 -498l115 0 0 0 0 16 0 15 1 15 1 15 1 15 2 15 2 14 2 14 2 14 3 14 3 14 3 14 4 13 4 13 4 13 4 13 5 13 5 13 5 12 5 12 6 12 6 13 6 11 7 12 7 12 7 11 8 12 7 11 8 11 9 11 8 11 9 10 -84 84 -11 -13 -10 -13 -10 -13 -10 -13 -9 -14 -9 -14 -9 -14 -8 -14 -9 -14 -7 -14 -8 -15 -7 -15 -6 -15 -7 -15 -6 -16 -5 -15 -6 -16 -5 -16 -4 -16 -5 -16 -3 -17 -4 -16 -3 -17 -3 -17 -3 -17 -2 -17 -2 -17 -1 -18 -2 -17 0 -18 -1 -18 0 -18 0 0zm194 -529l83 85 0 0 -10 11 -9 12 -10 13 -9 12 -9 12 -8 13 -8 12 -8 13 -7 13 -8 13 -6 13 -7 13 -6 13 -6 14 -5 13 -6 14 -5 14 -4 14 -4 14 -4 14 -4 15 -3 14 -3 15 -3 15 -2 15 -2 15 -2 16 -2 15 -1 16 -1 16 0 16 0 16 -115 0 0 -19 1 -18 1 -19 1 -19 2 -18 2 -18 2 -18 3 -18 3 -18 4 -18 4 -17 4 -17 5 -18 5 -17 6 -17 6 -16 6 -17 7 -16 7 -16 7 -16 8 -16 8 -16 8 -15 9 -16 10 -15 9 -15 10 -15 11 -14 10 -15 11 -14 12 -14 12 -14 0 0zm521 -224l0 124 0 0 -18 0 -17 0 -17 1 -17 2 -16 1 -16 2 -16 3 -16 3 -15 3 -16 3 -15 4 -14 4 -15 5 -14 5 -14 5 -13 5 -14 6 -13 7 -13 6 -13 7 -12 8 -12 7 -12 8 -12 9 -12 9 -11 9 -12 9 -11 10 -10 11 -11 10 -10 11 -11 12 -83 -85 12 -13 12 -14 13 -13 14 -12 13 -12 14 -12 14 -11 14 -11 14 -10 15 -10 15 -10 16 -9 15 -8 16 -8 16 -8 16 -7 17 -7 17 -6 17 -6 17 -6 17 -5 18 -4 18 -4 18 -4 19 -3 18 -3 19 -2 19 -2 19 -2 20 -1 19 -1 20 0 0 0zm232 99l-113 -21 42 70 -6 -1 -5 -2 -6 -1 -5 -2 -5 -1 -5 -1 -6 -1 -5 -2 -5 -1 -5 -1 -5 -1 -5 -1 -5 -1 -6 -1 -5 -1 -5 0 -5 -1 -5 -1 -5 0 -5 -1 -4 0 -5 -1 -5 0 -5 -1 -5 0 -5 0 -4 -1 -5 0 -5 0 -5 0 -4 0 -5 0 0 -124 6 0 5 0 6 1 6 0 6 0 6 0 5 1 6 0 6 1 6 0 6 1 6 0 6 1 5 1 6 1 6 0 6 1 6 1 6 1 6 2 6 1 6 1 6 1 6 1 7 2 6 1 6 2 6 1 6 2 6 2 6 1 6 2 42 70zm-42 -70l51 15 -9 55 -42 -70zm-97 206l26 -157 113 21 -26 158 -74 48 -39 -70zm113 22l-11 69 -63 -21 74 -48zm-246 15l0 -123 0 0 6 0 6 0 6 0 6 0 6 1 6 0 6 1 7 0 6 1 6 0 6 1 7 1 6 1 6 1 7 1 6 1 7 2 6 1 7 1 6 2 7 1 6 2 7 2 7 2 7 1 6 2 7 2 7 2 7 2 7 3 7 2 7 2 -35 118 -6 -2 -6 -2 -6 -2 -6 -2 -6 -2 -6 -1 -6 -2 -6 -2 -6 -1 -5 -2 -6 -1 -6 -1 -5 -2 -6 -1 -5 -1 -6 -1 -5 -1 -5 -1 -6 -1 -5 -1 -5 0 -5 -1 -5 0 -5 -1 -5 0 -5 -1 -5 0 -4 0 -5 -1 -5 0 -4 0 -5 0 0 0zm-295 127l-88 -79 0 0 9 -11 8 -10 9 -10 10 -10 9 -9 10 -9 10 -9 10 -8 10 -8 11 -7 11 -8 11 -6 12 -7 11 -6 12 -6 12 -6 12 -5 13 -5 12 -4 13 -4 13 -4 13 -3 14 -3 13 -3 14 -3 14 -2 14 -1 14 -2 15 -1 14 -1 15 0 15 0 0 123 -12 0 -13 1 -12 0 -12 1 -12 1 -12 2 -11 1 -11 2 -11 3 -10 2 -10 3 -11 3 -9 3 -10 3 -9 4 -10 4 -9 4 -8 4 -9 5 -8 4 -8 5 -8 6 -8 5 -7 6 -8 6 -7 6 -7 7 -7 6 -7 7 -6 7 -6 8 -7 8 0 0zm-102 323l-114 0 0 0 0 -14 0 -14 1 -15 1 -14 1 -14 1 -14 2 -14 2 -13 2 -14 2 -13 3 -14 2 -13 4 -13 3 -13 4 -13 4 -13 4 -12 4 -13 5 -12 5 -12 5 -12 5 -12 6 -12 6 -12 6 -11 6 -12 7 -11 7 -11 7 -11 8 -10 7 -11 8 -10 88 79 -6 8 -6 8 -6 9 -6 8 -5 9 -5 9 -5 9 -5 9 -5 9 -4 9 -5 10 -4 9 -3 10 -4 9 -4 10 -3 10 -3 10 -3 10 -3 11 -2 10 -2 11 -2 11 -2 11 -2 11 -2 11 -1 11 -1 12 -1 11 -1 12 0 12 0 12 -1 12 0 0zm118 334l-85 83 0 0 -9 -10 -8 -11 -9 -12 -8 -11 -8 -11 -8 -12 -7 -12 -7 -12 -7 -12 -6 -12 -7 -12 -6 -13 -5 -12 -6 -13 -5 -13 -5 -13 -4 -13 -4 -14 -4 -13 -4 -14 -3 -13 -3 -14 -3 -14 -2 -14 -2 -14 -2 -15 -2 -14 -1 -15 -1 -14 -1 -15 0 -15 0 -15 114 0 1 13 0 12 0 12 1 12 1 12 2 12 1 11 2 11 2 12 2 11 2 11 3 11 3 10 3 11 3 11 4 10 4 10 4 10 4 10 4 10 5 10 5 10 5 10 5 9 6 10 6 9 6 9 6 9 7 9 7 9 7 9 7 9 0 0zm326 136l0 124 0 0 -16 0 -16 -1 -15 -1 -15 -1 -15 -1 -15 -2 -15 -2 -14 -3 -15 -3 -14 -3 -14 -3 -14 -4 -13 -5 -14 -4 -13 -5 -13 -5 -13 -6 -12 -6 -13 -7 -12 -6 -12 -7 -12 -8 -12 -8 -11 -8 -11 -8 -11 -9 -11 -10 -10 -9 -10 -10 -10 -10 -10 -11 -10 -11 85 -83 7 8 8 9 8 7 7 8 8 7 8 7 9 7 8 6 9 7 9 6 9 5 9 6 9 5 10 5 9 4 10 5 10 4 11 4 10 3 11 4 11 3 11 3 12 2 11 3 12 2 12 1 13 2 12 1 13 1 13 1 13 0 14 0 0 0zm289 25l-114 -11 72 65 -9 3 -9 2 -9 3 -9 2 -8 3 -9 2 -9 2 -8 2 -9 2 -8 2 -8 2 -8 2 -8 2 -8 1 -8 2 -8 1 -8 2 -7 1 -8 1 -7 1 -7 1 -8 1 -7 1 -7 1 -7 1 -7 0 -7 1 -6 0 -7 1 -7 0 -6 0 -6 0 0 -124 4 0 5 0 6 0 5 0 5 0 6 -1 5 0 6 -1 6 -1 6 0 6 -1 6 -1 7 -1 6 -1 7 -1 7 -1 7 -2 7 -1 7 -1 7 -2 7 -2 8 -1 7 -2 8 -2 8 -2 8 -2 8 -2 8 -2 8 -2 9 -3 8 -2 9 -3 72 65zm-72 -65l80 -23 -8 88 -72 -65zm1570 -935l5 -140 115 5 -5 140 -60 59 -55 -64zm115 5l-2 62 -58 -3 60 -59zm-378 -12l-115 -1 58 -61 12 0 12 0 12 0 13 0 12 0 12 0 12 0 12 0 12 0 12 1 12 0 12 0 12 0 12 1 12 0 12 0 12 1 12 0 12 0 12 1 11 0 12 0 12 1 12 0 11 1 12 0 12 1 11 0 12 1 12 1 11 0 12 1 -6 123 -12 -1 -11 0 -11 -1 -12 0 -11 -1 -12 0 -11 -1 -12 0 -11 -1 -12 0 -11 -1 -12 0 -12 0 -11 -1 -12 0 -12 0 -11 -1 -12 0 -12 0 -12 -1 -12 0 -12 0 -11 0 -12 0 -12 0 -12 -1 -12 0 -12 0 -12 0 -12 0 -12 0 -12 0 57 -61zm-115 -1l1 -61 57 0 -58 61zm113 483l-115 0 0 0 0 -18 1 -18 0 -18 0 -18 0 -17 0 -17 0 -17 0 -17 0 -17 0 -16 0 -16 0 -16 0 -16 0 -16 0 -15 0 -15 0 -15 0 -15 0 -15 0 -14 0 -14 0 -14 0 -14 1 -14 0 -13 0 -13 0 -13 0 -13 0 -13 0 -12 0 -12 0 -12 115 1 0 12 0 12 0 12 0 13 0 13 0 13 -1 13 0 13 0 14 0 14 0 14 0 14 0 14 0 15 0 14 0 15 0 15 0 16 0 15 0 16 0 16 -1 16 0 17 0 16 0 17 0 17 0 17 0 17 0 18 0 18 0 18 0 18 0 0zm-48 739l0 -124 -57 64 -1 -22 0 -22 -1 -22 0 -22 -1 -22 0 -22 -1 -22 0 -22 -1 -21 0 -22 0 -22 -1 -21 0 -22 -1 -21 0 -21 0 -21 0 -22 -1 -21 0 -21 0 -21 0 -21 -1 -21 0 -21 0 -20 0 -21 0 -21 0 -20 0 -21 0 -20 0 -21 0 -20 -1 -20 115 0 0 20 0 20 0 20 0 21 1 20 0 21 0 20 0 21 0 20 0 21 0 21 1 21 0 21 0 21 0 21 1 21 0 21 0 21 1 21 0 22 0 21 1 21 0 22 1 22 0 21 0 22 1 22 0 22 1 21 1 22 0 22 1 22 -58 64zm58 -64l1 64 -59 0 58 -64zm-227 -60l169 0 0 124 -169 0 -57 -64 57 -60zm0 124l-59 0 2 -64 57 64zm-46 -739l115 0 0 0 0 21 0 21 0 22 0 21 -1 21 0 21 0 22 0 21 0 21 0 22 -1 21 0 21 0 21 0 22 -1 21 0 21 0 21 -1 22 0 21 -1 21 0 21 -1 21 0 22 0 21 -1 21 -1 21 0 21 -1 22 0 21 -1 21 -1 21 0 21 -115 -4 1 -21 0 -21 1 -21 1 -21 0 -21 1 -21 0 -21 1 -21 0 -21 1 -22 0 -21 1 -21 0 -21 0 -21 1 -21 0 -21 1 -21 0 -21 0 -21 0 -22 1 -21 0 -21 0 -21 0 -21 0 -21 1 -21 0 -22 0 -21 0 -21 0 -21 0 -21 0 -21 0 0zm52 -421l0 -123 57 59 0 13 1 12 0 13 0 13 1 13 0 13 0 13 1 14 0 14 0 14 0 14 1 14 0 15 0 14 0 15 0 15 1 16 0 15 0 16 0 15 0 16 0 16 0 17 0 16 0 17 1 17 0 17 0 17 0 17 0 18 0 18 0 18 -115 0 0 -18 0 -18 0 -17 0 -18 0 -17 0 -17 0 -17 0 -16 0 -16 -1 -17 0 -16 0 -16 0 -15 0 -16 0 -15 0 -15 -1 -15 0 -15 0 -14 0 -15 0 -14 -1 -14 0 -14 0 -13 0 -14 -1 -13 0 -13 0 -13 -1 -13 0 -12 0 -13 -1 -12 58 60zm0 -123l55 0 2 59 -57 -59zm-442 71l115 4 -60 -63 16 -1 15 -1 15 -1 15 0 14 -1 14 0 14 -1 14 -1 14 0 13 -1 14 0 13 -1 13 0 12 -1 13 0 12 0 12 -1 11 0 12 0 11 -1 11 0 11 0 11 0 10 -1 11 0 10 0 10 0 9 0 10 0 9 0 9 0 9 0 0 123 -9 0 -9 0 -8 0 -10 0 -9 0 -10 0 -10 1 -10 0 -10 0 -10 0 -11 0 -11 1 -11 0 -12 0 -11 1 -12 0 -12 0 -12 1 -13 0 -12 1 -13 0 -13 1 -14 0 -13 1 -14 0 -14 1 -14 0 -15 1 -14 1 -15 0 -15 1 -16 1 -60 -64zm60 64l-62 3 2 -67 60 64zm60 -201l-5 141 -115 -4 5 -142 57 -59 58 64zm-115 -5l2 -59 55 0 -57 59zm975 64l-918 0 0 -123 918 0 58 64 -58 59zm0 -123l60 0 -2 64 -58 -64zm1085 481l-106 -47 0 0 8 -21 8 -21 8 -20 7 -19 7 -18 7 -19 6 -17 7 -17 6 -16 5 -16 6 -16 5 -14 5 -14 5 -14 4 -13 4 -12 4 -12 4 -11 3 -11 3 -9 3 -10 3 -9 2 -8 2 -7 2 -7 1 -6 1 -5 1 -4 1 -4 0 -2 0 -1 0 0 115 0 -1 8 0 8 -1 7 -1 8 -2 7 -2 8 -2 8 -2 8 -2 9 -3 10 -3 10 -3 10 -3 11 -4 11 -4 12 -4 13 -4 13 -5 13 -5 14 -5 15 -5 15 -6 15 -6 17 -6 16 -6 18 -7 17 -7 19 -7 19 -7 19 -8 20 -8 21 -8 21 0 0zm-248 561l-100 -61 0 0 7 -13 7 -14 7 -13 7 -14 7 -14 7 -15 7 -15 8 -14 7 -16 7 -15 7 -16 8 -16 7 -16 8 -16 7 -17 8 -17 7 -17 8 -18 8 -18 7 -18 8 -18 8 -18 8 -19 8 -19 7 -19 8 -20 8 -20 8 -20 9 -20 8 -21 8 -20 8 -21 106 47 -8 21 -9 22 -8 20 -8 21 -8 20 -8 20 -8 20 -8 20 -9 19 -7 19 -8 19 -8 19 -8 18 -8 18 -8 18 -8 18 -7 17 -8 17 -8 17 -7 17 -8 16 -7 17 -8 15 -7 16 -8 16 -7 15 -7 15 -8 14 -7 15 -7 14 -8 14 -7 14 0 0zm0 0l0 0 0 1 0 -1zm-235 311l-65 -102 0 0 6 -4 5 -5 6 -4 5 -5 6 -6 6 -5 6 -6 6 -6 6 -6 6 -7 6 -7 6 -7 6 -8 6 -7 7 -8 6 -9 6 -8 7 -9 6 -9 7 -10 6 -9 7 -10 6 -11 7 -10 6 -11 7 -11 7 -11 6 -12 7 -12 7 -12 7 -13 6 -12 100 61 -7 13 -7 14 -8 13 -7 12 -7 13 -7 12 -7 12 -8 12 -7 12 -7 11 -7 11 -8 11 -7 10 -7 11 -7 10 -8 10 -7 9 -7 10 -7 9 -8 9 -7 8 -7 8 -8 9 -7 7 -8 8 -7 7 -7 8 -8 6 -8 7 -7 6 -8 7 -7 5 -1 1zm1 -1l-1 1 0 0 1 -1zm-380 32l114 -8 -57 -58 11 0 10 0 11 0 10 -1 10 -1 10 0 9 -1 10 -1 9 -1 9 -2 9 -1 9 -2 9 -2 8 -1 8 -2 9 -2 8 -3 7 -2 8 -3 7 -2 8 -3 7 -3 7 -3 6 -3 7 -3 6 -3 6 -3 7 -4 5 -4 6 -3 6 -4 5 -4 65 102 -7 5 -9 6 -8 5 -8 5 -9 5 -8 5 -9 4 -9 5 -9 4 -9 4 -10 3 -9 4 -10 3 -10 3 -9 3 -10 3 -11 3 -10 2 -10 3 -11 2 -11 2 -11 1 -10 2 -12 1 -11 2 -11 1 -12 1 -11 0 -12 1 -12 0 -12 1 -12 0 -57 -58zm57 58l-54 0 -3 -58 57 58zm50 -205l7 139 -114 8 -8 -140 57 -65 58 58zm-115 7l-4 -65 61 0 -57 65zm261 -109l61 104 0 0 -6 5 -7 4 -6 3 -7 4 -7 4 -7 3 -7 3 -7 3 -7 3 -8 3 -7 2 -8 3 -8 2 -8 2 -8 3 -8 1 -9 2 -8 2 -9 1 -8 2 -9 1 -9 1 -9 1 -9 1 -10 1 -9 1 -10 1 -10 0 -9 0 -10 1 -10 0 -11 0 0 -123 9 -1 9 0 9 0 9 0 8 -1 8 0 8 -1 8 -1 8 0 8 -1 7 -1 7 -1 7 -1 7 -2 7 -1 6 -1 6 -2 6 -1 6 -2 6 -2 6 -1 5 -2 5 -2 5 -2 5 -2 5 -2 4 -2 4 -3 5 -2 3 -2 4 -3 4 -2 0 0zm0 0l0 0 -1 0 1 0zm114 -146l115 0 -6 26 -4 9 -4 10 -4 9 -5 9 -4 9 -4 9 -5 8 -4 9 -5 8 -5 8 -4 8 -5 8 -5 8 -5 7 -5 7 -5 8 -5 7 -5 6 -5 7 -5 7 -5 6 -6 6 -5 6 -6 6 -5 5 -6 6 -6 5 -6 5 -6 5 -6 5 -6 4 -6 4 -61 -104 3 -2 4 -3 4 -3 3 -3 4 -3 4 -3 3 -4 4 -4 4 -4 3 -4 4 -4 4 -4 4 -5 3 -5 4 -5 4 -5 4 -6 4 -5 3 -6 4 -6 4 -6 4 -7 4 -7 3 -6 4 -7 4 -8 4 -7 3 -8 4 -8 4 -8 4 -8 3 -8 -5 26zm115 0l0 13 -6 13 6 -26zm-334 -459l100 -62 0 0 14 25 13 26 13 24 13 24 12 23 12 23 11 22 11 21 11 21 10 20 10 19 9 19 9 18 8 17 8 17 7 16 7 15 7 15 6 14 6 14 5 12 5 13 5 12 4 11 4 11 3 10 3 10 2 10 2 9 2 10 1 9 1 11 -115 0 0 1 0 -2 -1 -3 -1 -4 -1 -6 -2 -6 -3 -8 -2 -8 -4 -9 -4 -10 -4 -11 -5 -12 -5 -12 -6 -13 -6 -14 -7 -15 -7 -15 -7 -16 -8 -16 -9 -18 -9 -18 -9 -19 -10 -19 -10 -20 -11 -21 -11 -22 -12 -22 -12 -23 -12 -23 -13 -25 -14 -25 -14 -25 0 0zm0 0l0 0 1 2 -1 -2zm-176 -530l0 123 57 -62 -1 -12 -1 -4 0 0 1 3 1 3 2 5 3 5 3 7 3 7 5 9 4 9 5 9 5 11 6 12 7 12 6 13 8 14 7 15 9 15 8 17 9 17 10 18 10 18 10 20 11 20 11 21 12 22 12 22 12 24 13 24 14 25 14 26 -100 62 -14 -26 -13 -25 -13 -24 -13 -24 -12 -22 -12 -22 -11 -21 -11 -21 -10 -19 -10 -19 -10 -18 -9 -17 -8 -17 -9 -16 -7 -14 -8 -15 -7 -13 -6 -13 -6 -12 -6 -11 -5 -10 -5 -10 -4 -9 -4 -8 -4 -7 -3 -7 -3 -7 -2 -6 -3 -5 -2 -6 -2 -8 -2 -17 58 -61zm-58 61l0 -61 58 0 -58 61zm249 62l-191 0 0 -123 191 0 57 61 -57 62zm0 -123l57 0 0 61 -57 -61zm224 403l-101 59 0 0 -11 -21 -10 -20 -10 -20 -10 -20 -9 -18 -9 -18 -9 -18 -8 -17 -8 -16 -8 -16 -7 -15 -7 -14 -7 -14 -6 -13 -6 -13 -6 -12 -5 -12 -5 -11 -5 -10 -4 -10 -5 -9 -3 -9 -4 -8 -3 -8 -3 -7 -2 -7 -3 -6 -2 -6 -1 -7 -2 -6 -2 -8 0 -12 114 0 0 -6 0 -3 0 0 0 2 1 3 1 4 2 5 3 5 2 7 3 7 3 8 4 8 4 9 5 10 4 11 6 11 5 11 6 13 6 13 7 13 6 14 8 15 7 16 8 16 8 16 9 18 9 17 9 19 10 19 10 20 10 20 11 21 0 0zm122 349l0 123 -57 -62 0 5 0 1 0 0 0 -2 -1 -4 -2 -4 -2 -5 -2 -6 -2 -7 -3 -7 -4 -8 -3 -9 -4 -9 -5 -10 -5 -11 -5 -11 -5 -12 -6 -13 -6 -13 -7 -14 -6 -14 -8 -15 -7 -16 -8 -16 -8 -17 -9 -17 -9 -18 -9 -19 -9 -19 -10 -19 -11 -21 -10 -21 101 -59 10 21 11 21 10 20 9 19 10 19 9 18 8 18 9 17 8 16 7 16 8 15 7 15 6 14 7 14 6 13 5 12 6 12 5 12 5 10 4 11 4 9 4 10 3 8 4 9 2 7 3 8 2 7 2 7 2 7 2 7 1 8 1 10 -58 -61zm0 123l-57 0 0 -62 57 62zm10 0l-10 0 0 -123 10 0 52 87 -52 36zm52 -36l-15 36 -37 0 52 -36zm202 -839l0 123 58 -62 -1 13 0 14 -2 13 -2 15 -3 15 -3 15 -3 17 -4 17 -4 17 -5 19 -6 19 -6 21 -6 21 -7 21 -7 23 -8 24 -9 24 -9 25 -9 26 -10 27 -10 28 -11 29 -11 29 -12 31 -12 31 -13 32 -13 33 -14 34 -14 35 -15 36 -15 36 -16 38 -105 -51 16 -37 15 -37 15 -35 14 -34 13 -34 13 -32 13 -32 12 -31 12 -30 11 -29 10 -28 11 -27 9 -26 9 -26 9 -24 8 -24 7 -22 7 -22 7 -21 6 -19 5 -19 5 -18 5 -17 4 -16 3 -14 3 -14 3 -13 2 -12 1 -10 1 -9 1 -8 0 -7 57 -61zm-57 61l0 -61 57 0 -57 61zm225 62l-168 0 0 -123 168 0 58 61 -58 62zm0 -123l58 0 0 61 -58 -61zm1011 771l-63 -103 0 0 8 -6 9 -7 7 -6 8 -7 7 -6 7 -7 7 -7 6 -7 6 -8 6 -7 5 -8 5 -8 6 -8 4 -8 5 -8 4 -9 4 -9 4 -9 3 -9 3 -10 3 -9 3 -10 3 -10 2 -11 2 -10 2 -11 1 -11 1 -12 1 -12 1 -12 1 -12 0 -12 114 0 0 15 0 15 -1 16 -1 15 -2 14 -2 15 -2 14 -3 15 -3 14 -3 13 -4 14 -4 13 -5 14 -5 13 -5 12 -6 13 -6 12 -6 12 -7 12 -7 12 -8 11 -8 11 -8 11 -8 10 -9 10 -10 10 -9 10 -10 9 -11 9 -10 9 -11 8 -11 8 0 0zm-461 122l0 -123 0 0 16 -1 16 0 15 0 16 -1 15 -1 15 -1 14 -2 15 -1 14 -2 14 -2 14 -2 13 -2 13 -3 13 -3 13 -3 13 -3 12 -3 12 -4 12 -3 11 -4 12 -4 11 -4 11 -5 10 -5 11 -4 10 -5 10 -6 10 -5 10 -6 9 -5 9 -6 9 -6 63 103 -12 8 -11 7 -12 7 -12 7 -12 7 -12 6 -13 6 -12 6 -13 6 -13 5 -14 5 -13 5 -14 5 -14 4 -14 4 -14 4 -15 4 -15 3 -15 3 -15 3 -15 3 -15 2 -16 3 -16 2 -16 1 -16 2 -17 1 -17 1 -16 1 -17 0 -18 1 -17 0 0 0zm-2 -64l-115 0 62 -61 1 0 2 0 1 0 1 0 2 0 2 0 1 0 2 0 1 1 2 0 1 0 2 0 2 0 1 0 2 0 2 0 2 0 1 0 2 0 2 0 2 0 2 0 1 0 2 0 2 0 2 0 2 0 2 0 2 0 2 1 2 0 2 0 0 123 -2 0 -3 0 -2 0 -2 0 -2 0 -2 0 -2 0 -3 0 -1 0 -3 0 -2 0 -2 0 -2 0 -2 0 -2 -1 -2 0 -2 0 -2 0 -2 0 -2 0 -1 0 -2 0 -2 0 -2 0 -2 0 -2 -1 -2 0 -1 0 -2 0 -2 0 -2 0 -2 0 62 -62zm-115 0l0 -66 62 5 -62 61zm72 584l0 -124 -57 65 -1 -19 -1 -19 0 -18 -1 -19 -1 -18 -1 -19 -1 -18 0 -18 -1 -17 -1 -18 0 -17 -1 -17 0 -18 -1 -16 -1 -17 0 -16 0 -17 -1 -16 0 -16 -1 -16 0 -15 0 -16 -1 -15 0 -15 0 -15 0 -15 0 -14 -1 -15 0 -14 0 -14 0 -14 0 -14 115 0 0 14 0 13 0 14 0 14 0 14 1 15 0 14 0 15 0 15 0 15 1 15 0 15 0 16 1 16 0 16 1 16 0 16 1 16 0 17 1 17 0 17 1 17 1 18 0 17 1 18 1 18 1 18 0 18 1 19 1 18 1 19 1 19 -58 65zm58 -65l3 65 -61 0 58 -65zm-235 -59l177 0 0 124 -177 0 -57 -65 57 -59zm0 124l-60 0 3 -65 57 65zm-43 -739l115 0 0 0 0 24 0 25 -1 24 0 24 0 24 0 24 0 23 0 23 -1 23 0 23 0 22 0 23 -1 22 0 21 -1 22 0 21 0 22 -1 21 0 20 -1 21 0 20 -1 20 -1 20 0 20 -1 19 -1 19 0 19 -1 19 -1 18 -1 19 -1 18 0 17 -115 -6 1 -18 1 -17 0 -18 1 -19 1 -18 1 -19 0 -19 1 -19 1 -19 0 -20 1 -20 0 -20 1 -20 0 -21 1 -20 0 -21 1 -21 0 -22 0 -22 1 -21 0 -22 0 -23 1 -22 0 -23 0 -23 0 -23 0 -24 1 -23 0 -24 0 -24 0 -25 0 -24 0 0zm43 -674l0 123 58 -65 0 17 1 18 1 17 1 18 1 17 0 18 1 18 1 18 0 19 1 18 0 18 1 19 1 19 0 19 1 19 0 19 0 19 1 20 0 19 1 20 0 20 0 20 0 20 1 20 0 20 0 21 0 20 0 21 0 21 1 21 0 21 0 22 -115 0 0 -21 0 -21 0 -21 0 -21 -1 -21 0 -20 0 -20 0 -21 0 -20 -1 -19 0 -20 0 -20 -1 -19 0 -20 0 -19 -1 -19 0 -19 -1 -19 0 -19 -1 -18 0 -19 -1 -18 0 -18 -1 -18 -1 -18 0 -18 -1 -17 -1 -18 -1 -17 0 -17 -1 -17 -1 -17 57 -65zm-57 65l-3 -65 60 0 -57 65zm189 58l-132 0 0 -123 132 0 0 0 0 123zm120 -126l3 123 0 0 -6 1 -6 0 -6 0 -6 0 -5 0 -6 0 -5 1 -5 0 -5 0 -5 0 -5 0 -4 0 -4 0 -5 0 -4 0 -4 1 -3 0 -4 0 -3 0 -4 0 -3 0 -3 0 -3 0 -2 0 -3 0 -2 0 -2 0 -3 0 -2 0 -1 0 -2 0 -2 0 0 -123 2 0 1 0 2 0 2 0 1 0 3 0 2 0 2 0 3 0 3 0 2 -1 3 0 4 0 3 0 4 0 3 0 4 0 4 0 4 0 4 0 5 0 4 0 5 -1 5 0 5 0 5 0 6 0 5 0 6 0 6 -1 6 0 6 0 0 0zm0 0l0 0 -2 0 2 0zm172 -3l0 123 0 0 -4 0 -4 1 -5 0 -5 0 -4 0 -5 0 -4 0 -5 0 -5 0 -5 0 -5 0 -5 0 -5 0 -5 0 -5 0 -6 0 -5 0 -5 0 -6 1 -5 0 -6 0 -5 0 -6 0 -6 0 -6 0 -5 0 -6 1 -6 0 -6 0 -6 0 -7 0 -6 0 -3 -123 6 0 7 0 6 0 6 -1 6 0 6 0 6 0 6 0 6 0 5 -1 6 0 6 0 5 0 6 0 5 0 6 0 5 0 5 0 5 0 6 -1 5 0 5 0 5 0 5 0 5 0 4 0 5 0 5 0 5 0 4 0 5 0 4 0 0 0zm317 99l-70 98 0 0 -5 -4 -6 -4 -5 -5 -6 -4 -6 -3 -6 -4 -6 -4 -7 -3 -6 -4 -7 -3 -7 -3 -7 -3 -7 -3 -7 -2 -8 -3 -7 -2 -8 -3 -8 -2 -8 -2 -8 -2 -9 -1 -8 -2 -9 -1 -9 -2 -9 -1 -9 -1 -9 -1 -10 0 -10 -1 -10 0 -10 0 -10 -1 0 -123 12 0 12 0 11 1 12 1 11 0 11 1 12 2 11 1 10 2 11 1 11 2 10 2 11 3 10 2 10 3 10 3 10 3 10 4 10 3 9 4 9 4 10 4 9 4 9 5 9 5 8 5 9 5 8 6 9 5 8 6 8 6 7 6 0 0zm127 289l-114 0 0 0 0 -8 -1 -8 0 -8 -1 -7 0 -8 -1 -7 -1 -7 -2 -7 -1 -7 -2 -6 -1 -7 -2 -6 -2 -6 -2 -6 -3 -6 -2 -6 -3 -6 -2 -6 -3 -5 -3 -5 -4 -6 -3 -5 -4 -5 -3 -5 -4 -5 -4 -5 -4 -5 -5 -5 -5 -4 -4 -5 -5 -4 -6 -5 70 -98 8 7 8 7 7 7 7 7 7 7 6 7 6 8 7 8 5 8 6 8 6 8 5 9 5 8 4 9 5 9 4 9 4 9 3 10 4 9 3 10 3 10 2 10 3 10 2 10 2 10 1 11 1 10 2 11 0 10 1 11 0 11 0 11 0 0zm-535 -136l0 -123 0 0 21 0 21 1 20 1 20 2 19 3 18 3 18 3 18 4 17 5 17 6 16 6 15 7 15 7 15 9 13 9 14 9 12 11 12 11 11 12 11 13 9 13 9 14 8 15 7 15 6 16 5 16 5 17 3 17 3 17 2 18 1 18 0 18 -114 0 -1 -13 0 -12 -2 -12 -1 -11 -3 -10 -2 -10 -3 -9 -4 -9 -3 -8 -4 -8 -5 -7 -5 -7 -5 -7 -6 -6 -7 -6 -7 -6 -8 -6 -8 -5 -9 -5 -10 -5 -10 -5 -11 -4 -12 -4 -13 -4 -14 -3 -14 -3 -15 -2 -15 -2 -17 -2 -17 -1 -18 -1 -18 0 0 0zm-121 -49l-115 5 49 -64 7 -1 6 -1 6 0 7 -1 6 -1 6 -1 6 -1 6 -1 6 0 6 -1 7 -1 5 0 6 -1 6 0 6 -1 6 0 6 -1 6 0 5 -1 6 0 6 0 5 -1 6 0 6 0 5 0 6 -1 5 0 5 0 6 0 5 0 5 0 6 0 0 123 -5 0 -5 0 -5 0 -4 0 -5 1 -5 0 -5 0 -5 0 -5 0 -5 1 -5 0 -5 0 -5 1 -6 0 -5 0 -5 1 -5 0 -6 1 -5 0 -6 1 -5 0 -6 1 -5 0 -6 1 -6 1 -5 1 -6 0 -6 1 -6 1 -6 1 -5 1 -6 1 49 -64zm-115 5l-2 -56 51 -8 -49 64zm67 439l-6 123 -54 -62 0 -21 0 -20 0 -21 0 -20 0 -20 -1 -19 0 -19 0 -19 0 -18 0 -18 0 -18 0 -17 0 -17 -1 -16 0 -16 0 -16 0 -16 0 -15 -1 -15 0 -14 0 -14 0 -14 -1 -13 0 -13 0 -13 -1 -12 0 -12 0 -11 -1 -11 0 -11 -1 -11 0 -10 115 -5 0 10 1 11 0 11 0 11 1 12 0 12 0 13 1 13 0 13 0 13 1 14 0 15 0 14 0 15 1 15 0 16 0 16 0 16 0 17 1 17 0 17 0 18 0 18 0 18 0 19 0 19 0 20 0 20 0 20 0 20 0 21 0 21 -54 -61zm-6 123l-54 -3 0 -59 54 62zm82 -121l0 123 0 0 -3 0 -3 0 -2 0 -3 0 -3 0 -3 0 -3 0 -3 0 -3 0 -2 0 -3 0 -3 0 -2 0 -3 0 -3 0 -2 0 -3 0 -2 0 -3 -1 -2 0 -3 0 -2 0 -3 0 -2 0 -3 0 -2 0 -2 0 -2 0 -3 -1 -2 0 -2 0 -2 0 6 -123 2 0 2 0 2 0 2 0 2 0 2 1 2 0 2 0 2 0 3 0 2 0 2 0 2 0 3 0 2 0 2 0 3 0 2 0 3 0 2 0 3 1 2 0 3 0 2 0 3 0 3 0 2 0 3 0 3 0 3 0 3 0 2 0 0 0zm360 -204l114 0 0 0 0 20 -2 19 -2 19 -4 19 -4 18 -6 18 -7 17 -8 16 -9 16 -10 16 -11 14 -12 14 -13 13 -14 12 -15 11 -15 10 -16 10 -17 9 -17 8 -19 7 -18 7 -20 6 -20 6 -21 4 -22 5 -22 3 -23 3 -24 3 -25 2 -25 1 -26 1 -27 0 0 -123 25 0 24 -1 22 -1 22 -2 21 -2 20 -3 19 -3 18 -4 18 -4 16 -4 15 -5 15 -5 13 -6 13 -5 12 -7 10 -6 10 -7 9 -7 9 -7 7 -7 7 -8 6 -8 5 -8 5 -8 4 -9 4 -9 3 -10 3 -10 2 -11 1 -12 1 -12 1 -13 0 0zm1367 850l176 0 0 124 -176 0 -57 -67 57 -57zm0 124l-62 0 5 -67 57 67zm-44 -613l114 0 0 0 0 23 0 23 0 22 0 22 0 21 0 21 0 21 0 20 -1 20 0 20 0 19 0 19 -1 18 0 19 0 17 -1 18 0 17 -1 17 0 16 -1 17 0 15 -1 16 0 15 -1 15 0 14 -1 14 -1 14 0 13 -1 13 -1 13 -1 12 -1 12 -114 -10 1 -11 1 -12 0 -12 1 -12 1 -13 0 -13 1 -14 1 -14 0 -14 1 -15 0 -15 1 -16 0 -15 1 -17 0 -16 1 -17 0 -17 0 -18 1 -18 0 -18 0 -19 0 -19 1 -19 0 -20 0 -20 0 -21 0 -21 0 -21 1 -22 0 -22 0 -22 0 -23 0 0zm63 -366l0 -123 57 63 0 16 -1 16 0 16 0 15 0 16 -1 15 0 15 0 15 -1 14 0 15 0 14 0 14 -1 14 0 14 0 14 0 13 0 13 0 14 -1 12 0 13 0 13 0 12 0 12 0 12 0 12 0 12 0 11 0 11 0 11 -1 11 0 11 0 10 -114 0 0 -10 0 -11 0 -11 0 -11 0 -12 0 -11 0 -12 0 -12 0 -12 0 -12 0 -13 0 -12 1 -13 0 -13 0 -13 0 -14 0 -13 0 -14 1 -14 0 -14 0 -14 0 -14 1 -15 0 -15 0 -15 0 -15 1 -15 0 -15 0 -16 1 -16 0 -16 0 -16 58 63zm0 -123l58 0 -1 63 -57 -63zm-10 0l10 0 0 123 -10 0 -54 -82 54 -41zm-54 41l13 -41 41 0 -54 41zm-247 566l-88 -78 0 0 19 -25 19 -25 18 -24 17 -23 17 -23 17 -22 16 -21 15 -21 15 -20 14 -19 14 -19 13 -19 12 -17 12 -17 12 -17 11 -16 10 -15 10 -14 9 -14 8 -14 8 -12 8 -12 7 -12 6 -10 6 -10 5 -9 4 -9 4 -8 3 -6 3 -6 2 -5 1 -4 109 41 -4 9 -3 9 -5 10 -4 10 -5 10 -6 11 -6 11 -7 11 -7 12 -7 13 -8 13 -9 13 -9 14 -10 15 -10 15 -11 16 -11 17 -12 17 -12 17 -13 18 -13 19 -14 19 -15 20 -15 21 -16 21 -16 22 -16 22 -17 23 -18 23 -18 24 -19 25 -20 25 0 0zm-336 495l0 -124 -57 62 0 -12 2 -11 2 -12 3 -11 3 -11 4 -11 5 -11 5 -12 5 -12 6 -12 7 -13 7 -13 7 -14 9 -14 8 -15 9 -15 10 -15 10 -16 11 -17 12 -17 12 -18 12 -18 13 -19 14 -19 14 -20 15 -20 15 -21 16 -21 16 -22 17 -23 18 -23 18 -23 88 78 -17 23 -18 23 -16 22 -16 22 -16 21 -15 20 -14 20 -14 19 -13 19 -13 18 -12 17 -11 17 -11 16 -10 16 -10 15 -9 15 -8 14 -8 13 -8 12 -6 12 -6 12 -6 10 -5 10 -4 9 -3 9 -3 7 -3 7 -1 5 -1 5 -1 3 0 2 0 0 -58 62zm58 -62l0 62 -58 0 58 -62zm-187 -62l129 0 0 124 -129 0 -57 -66 57 -58zm0 124l-61 0 4 -66 57 66zm-42 -674l115 0 0 0 0 22 0 22 0 21 0 21 0 22 0 21 -1 21 0 20 0 21 0 20 -1 20 0 20 -1 20 0 20 0 19 -1 20 0 19 -1 19 -1 19 0 18 -1 19 0 18 -1 18 -1 18 -1 18 0 18 -1 17 -1 18 -1 17 -1 17 -1 16 -1 17 -114 -8 1 -16 1 -17 0 -16 1 -17 1 -17 1 -17 1 -18 0 -17 1 -18 1 -18 1 -18 0 -18 1 -19 0 -18 1 -19 0 -19 1 -19 0 -19 1 -20 0 -19 0 -20 1 -20 0 -20 0 -20 1 -21 0 -21 0 -20 0 -21 0 -22 0 -21 0 -21 0 -22 0 0zm42 -739l0 123 57 -65 1 21 1 20 1 20 1 21 1 20 1 21 0 20 1 21 1 21 1 21 0 21 1 21 1 21 0 21 1 21 0 21 1 22 0 21 0 21 1 22 0 22 1 21 0 22 0 22 0 21 1 22 0 22 0 22 0 22 0 22 0 23 0 22 -115 0 0 -22 0 -22 0 -22 0 -22 0 -22 0 -22 0 -21 -1 -22 0 -21 0 -22 -1 -21 0 -22 0 -21 -1 -21 0 -21 -1 -22 0 -21 -1 -21 0 -20 -1 -21 0 -21 -1 -21 -1 -20 -1 -21 0 -21 -1 -20 -1 -20 -1 -21 -1 -20 0 -20 -1 -20 -1 -20 57 -65zm-57 65l-4 -65 61 0 -57 65zm231 58l-174 0 0 -123 174 0 57 65 -57 58zm0 -123l60 0 -3 65 -57 -65zm44 662l-115 0 0 0 0 -21 0 -21 0 -20 1 -21 0 -20 0 -20 0 -20 0 -20 0 -20 1 -19 0 -20 0 -19 0 -20 1 -19 0 -19 0 -19 1 -19 0 -18 1 -19 0 -18 1 -19 0 -18 1 -18 1 -18 0 -18 1 -17 1 -18 0 -17 1 -18 1 -17 1 -17 0 -17 115 7 -1 16 -1 17 0 17 -1 17 -1 17 0 18 -1 17 -1 18 0 17 -1 18 0 18 -1 18 0 18 -1 19 0 18 -1 19 0 19 0 18 -1 19 0 20 0 19 -1 19 0 20 0 19 0 20 0 20 -1 20 0 20 0 20 0 21 0 20 0 21 0 0zm-66 316l0 124 -57 -64 0 -13 1 -13 0 -13 1 -13 0 -12 1 -13 0 -12 1 -13 0 -12 0 -12 1 -12 0 -12 0 -12 1 -12 0 -12 0 -12 0 -12 1 -11 0 -12 0 -11 0 -12 1 -11 0 -11 0 -11 0 -11 0 -11 0 -11 0 -11 0 -11 0 -11 0 -10 0 -11 115 0 0 11 0 11 0 11 0 10 0 12 0 11 0 11 0 11 -1 12 0 11 0 12 0 11 0 12 -1 11 0 12 0 12 0 12 -1 12 0 12 0 12 -1 13 0 12 0 12 -1 13 0 12 -1 13 0 12 0 13 -1 13 0 13 -1 13 0 13 -58 -65zm0 124l-60 0 3 -64 57 64zm10 0l-10 0 0 -124 10 0 53 86 -53 38zm53 -38l-14 38 -39 0 53 -38zm257 -568l88 80 0 0 -19 25 -19 24 -18 24 -18 23 -17 22 -17 22 -16 22 -16 20 -15 20 -14 20 -14 19 -13 18 -13 18 -13 17 -11 16 -11 16 -11 15 -10 15 -10 14 -8 13 -9 13 -8 12 -7 11 -6 11 -6 10 -6 9 -5 8 -4 8 -4 7 -3 6 -2 6 -2 4 -106 -47 4 -9 4 -9 4 -9 5 -10 6 -10 6 -10 6 -11 7 -11 7 -12 8 -13 8 -13 9 -13 10 -14 10 -15 10 -15 11 -15 12 -17 12 -17 12 -17 13 -18 14 -19 14 -19 15 -20 15 -20 16 -21 16 -22 17 -22 17 -23 18 -23 19 -24 19 -24 19 -26 0 0zm331 -496l0 123 57 -62 -1 13 -1 11 -2 12 -3 12 -3 11 -4 12 -4 12 -5 12 -5 13 -6 13 -7 13 -7 14 -7 14 -8 14 -9 15 -9 15 -10 16 -10 16 -10 17 -12 17 -11 17 -13 19 -12 18 -14 19 -14 20 -14 20 -15 20 -16 21 -16 21 -17 22 -17 23 -18 23 -88 -80 18 -22 17 -22 16 -21 16 -21 15 -21 14 -20 14 -19 14 -19 13 -18 12 -18 12 -17 11 -17 11 -16 10 -15 9 -15 9 -15 8 -14 8 -13 7 -13 6 -12 6 -11 5 -11 5 -10 4 -10 4 -9 3 -8 2 -7 2 -6 1 -5 1 -5 0 -3 0 -2 58 -61zm-58 61l0 -61 58 0 -58 61zm188 62l-130 0 0 -123 130 0 57 64 -57 59zm0 -123l60 0 -3 64 -57 -64zm43 739l-115 0 0 0 0 -22 0 -23 1 -22 0 -22 0 -22 0 -22 0 -22 0 -21 1 -22 0 -22 0 -21 0 -22 1 -21 0 -22 1 -21 0 -21 0 -22 1 -21 0 -21 1 -21 0 -21 1 -21 1 -21 0 -21 1 -20 1 -21 0 -20 1 -21 1 -20 1 -21 1 -20 0 -20 115 5 -1 20 -1 20 0 21 -1 20 -1 20 -1 21 0 20 -1 21 -1 20 0 21 -1 21 0 20 -1 21 0 21 -1 21 0 21 -1 21 0 22 0 21 -1 21 0 21 0 22 -1 21 0 22 0 22 0 21 0 22 -1 22 0 22 0 22 0 22 0 22 0 0zm-43 674l0 -124 -58 66 0 -17 -1 -17 -1 -17 -1 -17 -1 -17 0 -18 -1 -17 -1 -18 0 -18 -1 -18 0 -19 -1 -18 -1 -19 0 -18 -1 -19 0 -20 0 -19 -1 -19 0 -20 -1 -20 0 -20 0 -20 0 -20 -1 -21 0 -21 0 -20 0 -21 0 -22 0 -21 -1 -21 0 -22 0 -22 115 0 0 22 0 21 0 22 0 21 1 21 0 21 0 20 0 21 0 20 1 20 0 20 0 20 1 20 0 19 0 19 1 19 0 19 1 19 0 19 1 18 0 18 1 18 0 18 1 18 1 18 0 17 1 17 1 17 1 17 0 17 1 16 1 17 -57 65zm57 -65l3 65 -60 0 57 -65zm1103 -31l-73 -96 0 0 7 -6 7 -6 6 -7 6 -6 6 -7 6 -6 5 -7 6 -7 4 -7 5 -7 5 -7 4 -8 4 -7 4 -7 4 -8 3 -8 3 -7 3 -8 3 -8 3 -8 2 -9 2 -8 2 -9 2 -9 2 -8 1 -10 1 -9 1 -9 1 -10 1 -9 0 -10 0 -10 115 0 0 13 -1 13 0 12 -1 13 -2 13 -1 12 -2 12 -2 13 -3 12 -3 12 -3 11 -3 12 -4 12 -4 11 -4 11 -5 11 -5 11 -5 11 -5 11 -6 10 -6 11 -7 10 -6 10 -7 9 -8 10 -7 9 -8 9 -8 9 -8 9 -9 9 -8 8 -10 9 0 0zm0 0l0 0 1 -1 -1 1zm-376 129l0 -124 0 0 13 0 11 0 12 -1 12 0 11 -1 11 -1 11 -2 11 -1 11 -2 10 -2 11 -2 10 -2 10 -3 10 -3 9 -3 10 -3 9 -3 9 -3 9 -4 9 -4 9 -4 8 -4 9 -5 8 -4 8 -5 8 -5 8 -5 7 -5 8 -6 7 -6 7 -6 7 -6 73 96 -9 8 -9 7 -10 8 -10 7 -10 7 -10 7 -10 6 -11 7 -11 6 -10 5 -11 6 -12 5 -11 5 -11 4 -12 5 -12 4 -12 4 -12 4 -12 3 -12 3 -13 3 -12 2 -13 3 -13 2 -13 2 -13 1 -13 2 -14 1 -13 1 -14 0 -14 1 -14 0 0 0zm-442 -135l113 19 -37 -67 9 3 10 4 10 3 9 3 10 3 10 4 10 3 11 2 10 3 11 3 10 2 11 3 11 2 11 2 11 2 12 2 11 2 12 2 12 1 12 2 12 1 12 1 12 1 13 1 12 1 13 1 13 1 13 0 13 1 13 0 14 0 13 0 0 124 -14 0 -14 -1 -15 0 -14 0 -14 -1 -14 -1 -14 0 -13 -1 -14 -2 -13 -1 -14 -1 -13 -2 -13 -1 -13 -2 -13 -2 -13 -2 -12 -2 -13 -2 -12 -3 -12 -2 -12 -3 -13 -3 -11 -3 -12 -3 -12 -3 -12 -4 -11 -3 -11 -4 -12 -3 -11 -4 -11 -4 -10 -5 -37 -67zm37 67l-45 -17 8 -50 37 67zm99 -205l-23 157 -113 -19 23 -158 79 -47 34 67zm-113 -20l11 -78 68 31 -79 47zm419 29l0 123 0 0 -12 0 -12 0 -13 -1 -12 0 -12 -1 -12 -1 -12 -1 -13 -1 -12 -2 -12 -1 -12 -2 -12 -2 -12 -2 -13 -2 -12 -3 -12 -2 -12 -3 -12 -3 -12 -3 -12 -3 -12 -4 -12 -3 -11 -4 -12 -4 -12 -4 -12 -4 -12 -5 -12 -4 -12 -5 -11 -5 -12 -5 -12 -5 45 -114 10 5 11 4 10 5 11 4 10 4 11 4 10 4 11 3 10 4 11 3 11 3 10 3 11 3 10 3 11 2 10 3 11 2 11 2 10 2 11 2 11 2 10 1 11 2 11 1 11 1 10 1 11 1 11 0 11 1 11 0 11 1 10 0 0 0zm255 -189l115 0 0 0 0 18 -2 17 -1 18 -3 17 -3 17 -5 16 -5 16 -6 15 -6 15 -8 15 -8 14 -10 13 -10 13 -10 12 -12 11 -12 10 -13 10 -13 9 -14 8 -15 7 -15 7 -16 6 -16 6 -16 5 -17 4 -18 3 -18 3 -18 3 -19 2 -20 1 -20 1 -21 0 0 -123 18 -1 17 0 17 -1 15 -2 15 -2 15 -2 13 -3 13 -3 12 -4 12 -4 10 -4 10 -4 9 -5 9 -5 8 -5 7 -6 7 -5 6 -6 6 -7 5 -6 5 -7 4 -7 4 -8 4 -8 3 -8 3 -9 2 -10 2 -10 2 -11 1 -12 1 -12 0 -12 0 0zm-77 -132l52 -110 0 0 8 4 8 5 8 5 7 5 7 6 8 5 7 6 6 6 7 6 6 7 6 6 6 7 5 8 6 7 4 8 5 7 5 8 4 8 4 9 3 8 3 9 3 8 3 9 2 9 2 9 2 10 2 9 1 9 1 10 0 9 1 10 0 10 -115 0 0 -7 0 -6 -1 -5 0 -6 -1 -5 -1 -5 -1 -6 -1 -4 -1 -5 -1 -5 -2 -4 -1 -4 -2 -5 -2 -4 -2 -4 -2 -3 -2 -4 -3 -4 -3 -3 -2 -4 -3 -4 -3 -3 -4 -3 -3 -4 -4 -3 -4 -3 -4 -4 -4 -3 -5 -3 -4 -3 -5 -3 -6 -3 0 0zm0 0l0 0 -1 -1 1 1zm-251 -52l0 -124 0 0 11 0 11 1 11 0 10 0 11 1 11 1 10 0 10 1 11 1 10 2 10 1 10 1 10 2 9 1 10 2 10 2 9 2 9 3 10 2 9 2 9 3 9 3 8 3 9 3 9 3 8 3 9 3 8 4 8 4 8 4 8 4 8 4 -52 110 -6 -3 -6 -3 -6 -3 -6 -3 -6 -3 -7 -2 -6 -3 -7 -2 -7 -3 -7 -2 -7 -2 -7 -2 -8 -2 -7 -2 -8 -2 -8 -2 -8 -1 -8 -2 -8 -1 -8 -2 -9 -1 -8 -1 -9 -1 -9 -1 -9 -1 -9 0 -9 -1 -10 0 -9 -1 -10 0 -9 0 -10 0 0 0zm-203 -66l114 19 -61 -71 4 -1 4 0 5 0 4 -1 4 0 5 0 4 0 5 -1 4 0 5 0 4 0 5 -1 5 0 4 0 5 0 5 0 4 0 5 -1 5 0 4 0 5 0 5 0 5 0 5 0 5 0 5 0 5 -1 5 0 5 0 5 0 5 0 5 0 0 124 -5 0 -5 0 -5 0 -5 0 -4 0 -5 0 -5 0 -4 0 -5 0 -5 0 -4 0 -5 1 -4 0 -5 0 -4 0 -5 0 -4 0 -5 0 -4 1 -4 0 -5 0 -4 0 -4 0 -4 1 -5 0 -4 0 -4 0 -4 1 -4 0 -4 0 -4 0 -4 1 -61 -71zm61 71l-72 5 11 -76 61 71zm74 -200l-21 148 -114 -19 21 -148 62 -52 52 71zm-114 -19l8 -57 54 5 -62 52zm207 -47l0 123 0 0 -6 0 -6 0 -6 0 -6 0 -6 0 -5 0 -6 0 -5 0 -6 0 -5 0 -5 0 -5 -1 -5 0 -5 0 -5 0 -5 0 -5 0 -5 0 -4 -1 -5 0 -5 0 -4 0 -4 -1 -5 0 -4 0 -4 0 -4 -1 -4 0 -4 0 -4 0 -3 -1 -4 0 10 -123 3 0 3 0 4 1 3 0 4 0 3 1 4 0 4 0 4 0 4 0 4 1 4 0 4 0 4 0 5 0 4 1 5 0 5 0 4 0 5 0 5 0 5 0 5 0 5 0 6 1 5 0 5 0 6 0 5 0 6 0 6 0 6 0 0 0zm249 -166l114 0 0 0 0 17 -1 16 -2 16 -3 17 -3 15 -4 16 -5 15 -6 14 -7 14 -8 14 -8 13 -10 12 -10 12 -11 10 -11 11 -12 9 -13 9 -13 8 -14 8 -14 6 -14 7 -16 5 -15 5 -17 4 -16 4 -17 3 -18 3 -18 2 -19 2 -19 1 -19 1 -20 0 0 -123 17 0 17 -1 16 -1 16 -1 15 -2 14 -2 13 -3 13 -3 12 -3 11 -4 10 -3 10 -5 9 -4 9 -4 8 -5 7 -5 6 -5 6 -6 6 -5 5 -6 4 -6 4 -6 4 -7 3 -7 3 -7 3 -8 2 -8 2 -8 2 -10 1 -10 0 -10 1 -11 0 0zm-222 -136l0 -123 0 0 19 0 18 1 17 1 17 1 17 2 16 2 15 3 16 4 14 3 15 5 14 4 13 6 13 6 13 6 12 7 12 8 11 9 11 9 10 10 9 10 9 11 8 12 7 12 7 12 5 14 5 13 4 14 4 14 2 15 2 15 1 14 0 16 -114 0 -1 -9 0 -9 -1 -8 -1 -7 -2 -7 -2 -7 -2 -6 -3 -6 -2 -5 -3 -5 -4 -5 -4 -5 -4 -5 -4 -4 -6 -4 -5 -5 -6 -4 -7 -4 -8 -4 -8 -3 -9 -4 -9 -3 -10 -3 -11 -3 -12 -2 -12 -3 -12 -1 -14 -2 -14 -1 -14 -1 -16 -1 -16 0 0 0zm-369 -12l114 20 -79 -67 9 -4 9 -4 10 -4 9 -3 10 -4 9 -3 10 -3 10 -3 9 -3 10 -3 10 -3 11 -2 10 -3 10 -2 10 -2 11 -2 10 -2 11 -2 10 -2 11 -1 11 -2 11 -1 11 -1 11 -1 11 -1 11 -1 12 -1 11 0 12 -1 11 0 12 0 11 0 0 123 -10 0 -11 0 -10 1 -10 0 -11 1 -10 0 -10 1 -10 1 -9 1 -10 1 -10 1 -9 1 -10 1 -9 2 -9 1 -9 2 -9 2 -9 2 -9 2 -9 2 -8 2 -9 2 -8 3 -9 2 -8 3 -8 3 -8 2 -8 3 -8 3 -8 3 -7 4 -8 3 -79 -67zm79 67l-95 42 16 -109 79 67zm57 -201l-22 154 -114 -20 23 -153 37 -49 76 68zm-113 -19l5 -36 32 -13 -37 49zm422 -99l0 124 0 0 -15 0 -14 0 -15 0 -14 0 -13 1 -14 0 -13 1 -13 1 -13 0 -12 1 -13 1 -12 1 -11 1 -12 1 -11 2 -11 1 -11 1 -11 2 -10 1 -10 2 -9 2 -10 2 -9 2 -9 2 -9 2 -8 2 -8 2 -8 2 -8 2 -7 3 -7 2 -7 3 -38 -117 9 -3 9 -3 9 -3 10 -3 9 -3 10 -2 10 -3 10 -2 11 -2 10 -3 11 -2 11 -2 11 -2 12 -1 11 -2 12 -2 12 -1 13 -2 12 -1 13 -1 13 -1 13 -1 13 -1 14 -1 14 0 14 -1 14 -1 15 0 14 0 15 -1 16 0 15 0 0 0zm305 98l-75 93 0 0 -4 -4 -5 -3 -4 -4 -5 -4 -5 -3 -5 -4 -5 -3 -6 -3 -6 -3 -5 -3 -7 -3 -6 -2 -6 -3 -7 -3 -7 -2 -7 -2 -7 -2 -7 -2 -8 -2 -8 -2 -8 -2 -8 -1 -9 -1 -8 -2 -9 -1 -9 -1 -10 0 -9 -1 -10 -1 -10 0 -10 0 -10 0 0 -124 12 0 12 1 11 0 11 1 12 0 11 1 11 2 11 1 10 1 11 2 10 2 10 2 10 2 10 3 10 2 10 3 9 3 10 3 9 4 9 4 9 3 9 5 8 4 9 4 8 5 8 5 8 5 8 6 7 5 8 6 7 6 7 7 0 0zm0 0l0 0 -2 -2 2 2zm110 256l-115 0 0 0 0 -6 0 -7 -1 -6 0 -6 -1 -6 0 -6 -1 -5 -1 -6 -1 -6 -2 -5 -1 -5 -2 -6 -1 -5 -2 -5 -2 -5 -2 -5 -2 -5 -3 -5 -2 -4 -3 -5 -2 -5 -3 -4 -3 -5 -4 -5 -3 -4 -3 -5 -4 -4 -4 -5 -4 -4 -4 -4 -4 -5 -5 -4 75 -93 7 6 6 6 6 7 6 6 6 7 6 7 5 7 5 7 5 7 5 8 5 7 4 8 5 7 4 8 3 8 4 8 4 9 3 8 3 8 2 9 3 8 2 9 2 9 2 9 2 9 1 9 1 9 1 9 1 9 0 9 1 10 0 9 0 0zm-201 299l-114 0 36 -57 11 -5 10 -5 10 -5 10 -6 9 -5 9 -6 8 -6 8 -6 7 -6 8 -6 6 -7 7 -6 6 -7 5 -7 6 -7 5 -7 4 -7 5 -8 4 -7 4 -8 3 -8 3 -9 3 -8 3 -9 2 -9 2 -9 2 -10 1 -10 2 -10 0 -11 1 -11 0 -11 115 0 0 15 -1 15 -1 15 -2 15 -2 14 -2 14 -4 14 -3 14 -4 14 -5 13 -5 13 -5 13 -6 13 -7 12 -7 12 -7 11 -8 12 -8 11 -9 10 -9 11 -10 9 -10 10 -11 9 -11 9 -11 9 -11 8 -12 7 -13 8 -12 7 -14 7 -13 6 -14 6 36 -57zm-114 0l0 -42 36 -15 -36 57zm0 10l0 -10 114 0 0 10 -68 61 -46 -61zm46 61l-46 -10 0 -51 46 61zm326 263l-115 0 0 0 0 -15 -1 -14 -1 -14 -1 -13 -2 -12 -3 -12 -2 -12 -3 -11 -4 -11 -3 -10 -5 -9 -4 -10 -5 -9 -5 -8 -6 -8 -5 -8 -7 -8 -7 -7 -7 -7 -7 -7 -8 -6 -9 -6 -9 -6 -10 -6 -10 -5 -11 -5 -11 -5 -12 -5 -12 -4 -13 -4 -14 -3 -14 -3 22 -122 17 4 18 5 16 5 17 5 15 6 16 7 15 7 14 8 14 8 14 9 13 9 12 10 12 11 12 11 10 11 11 13 9 12 9 14 9 14 8 14 7 15 6 15 6 15 5 16 5 17 3 16 4 18 2 17 2 18 2 18 1 18 0 19 0 0zm1486 320l173 0 0 124 -173 0 -58 -62 58 -62zm0 124l-58 0 0 -62 58 62zm-86 -696l114 -9 0 0 2 26 2 25 1 26 2 24 2 25 1 24 1 24 2 23 1 23 1 23 2 22 1 22 1 21 1 21 1 21 1 20 1 20 1 19 0 20 1 18 1 19 0 18 1 17 0 18 1 17 0 16 0 16 1 16 0 15 0 15 0 15 0 14 -115 0 0 -14 0 -14 0 -14 0 -15 0 -16 -1 -15 0 -16 0 -17 -1 -17 0 -17 -1 -18 -1 -18 0 -18 -1 -19 -1 -19 -1 -20 -1 -20 -1 -20 -1 -21 -1 -21 -1 -22 -1 -22 -1 -22 -2 -23 -1 -23 -1 -24 -2 -24 -2 -24 -1 -25 -2 -25 -1 -25 -2 -26 0 0zm27 -444l0 -123 57 60 0 5 0 6 1 6 0 8 0 8 1 8 0 9 1 10 0 11 1 11 0 12 1 13 1 13 1 14 0 15 1 15 1 16 1 17 1 17 2 18 1 18 1 19 1 20 2 21 1 21 2 22 1 22 2 24 1 23 2 25 1 25 2 26 -114 9 -2 -26 -2 -25 -1 -25 -2 -24 -1 -23 -2 -22 -1 -22 -2 -21 -1 -21 -1 -20 -2 -19 -1 -19 -1 -18 -1 -17 -1 -17 -1 -16 -1 -15 -1 -15 -1 -14 -1 -14 0 -12 -1 -13 -1 -11 0 -11 -1 -10 0 -10 0 -9 -1 -8 0 -8 0 -7 -1 -7 0 -6 58 61zm0 -123l56 0 1 60 -57 -60zm-10 0l10 0 0 123 -10 0 -55 -80 55 -43zm-55 43l13 -43 42 0 -55 43zm-125 740l-107 -46 0 0 9 -23 9 -24 8 -23 9 -23 8 -23 8 -23 8 -22 8 -23 8 -23 8 -22 8 -22 8 -22 7 -22 8 -22 7 -22 8 -22 7 -22 7 -21 7 -22 7 -21 7 -21 6 -21 7 -21 7 -21 6 -21 6 -20 7 -21 6 -20 6 -21 6 -20 6 -20 5 -20 110 36 -6 21 -6 20 -6 21 -6 21 -6 20 -7 21 -6 21 -7 21 -6 22 -7 21 -7 21 -7 22 -7 21 -7 22 -7 22 -7 22 -8 22 -7 22 -8 22 -8 23 -7 22 -8 23 -8 22 -8 23 -9 23 -8 23 -8 23 -9 23 -8 24 -9 23 -9 23 -8 24 0 0zm0 0l0 0 0 0 0 0zm-195 480l0 -124 -58 62 0 -8 1 -8 1 -8 1 -8 2 -8 2 -9 2 -9 2 -9 2 -10 3 -11 3 -11 4 -12 3 -12 4 -12 4 -14 5 -13 4 -15 5 -15 6 -15 5 -17 6 -16 6 -18 6 -18 7 -18 7 -19 7 -20 7 -20 8 -21 8 -22 8 -22 8 -23 9 -23 107 46 -9 23 -9 23 -8 22 -7 21 -8 21 -7 20 -7 19 -7 19 -7 18 -6 18 -6 17 -5 16 -6 16 -5 15 -4 14 -5 14 -4 13 -4 12 -3 12 -4 11 -3 11 -3 10 -2 9 -2 8 -2 8 -2 7 -1 6 -1 5 0 5 -1 3 0 2 0 0 -57 62zm57 -62l0 62 -57 0 57 -62zm-182 -62l125 0 0 124 -125 0 -58 -62 58 -62zm0 124l-58 0 0 -62 58 62zm-186 -489l107 -44 0 0 8 24 8 23 8 22 7 22 8 21 7 21 6 20 7 19 6 19 6 18 5 17 6 17 5 17 5 16 4 15 4 15 5 14 3 13 4 13 3 12 3 12 3 12 3 10 2 11 2 9 2 10 2 9 1 8 1 8 1 8 1 8 0 8 -115 0 0 -1 0 -3 0 -3 -1 -5 -1 -6 -1 -6 -2 -7 -1 -8 -2 -9 -3 -10 -2 -10 -3 -11 -3 -11 -3 -12 -4 -13 -4 -13 -4 -14 -5 -15 -4 -15 -5 -16 -5 -17 -6 -17 -6 -18 -6 -18 -6 -19 -6 -20 -7 -20 -7 -21 -8 -21 -7 -22 -8 -23 -8 -23 0 0zm0 0l0 0 -1 -3 1 3zm-169 -513l111 -35 0 0 2 8 2 9 3 8 3 10 3 10 3 10 3 12 4 11 3 12 4 13 4 13 5 13 4 14 5 15 5 15 5 15 5 16 6 17 5 17 6 17 6 19 7 18 6 19 7 20 6 20 7 20 8 21 7 22 8 21 7 23 8 23 8 23 -107 44 -8 -24 -8 -23 -8 -23 -8 -22 -7 -21 -7 -21 -7 -21 -7 -20 -7 -20 -6 -19 -7 -19 -6 -18 -6 -17 -5 -18 -6 -16 -5 -16 -5 -16 -5 -15 -5 -15 -5 -15 -4 -13 -4 -14 -4 -13 -4 -12 -4 -12 -3 -11 -4 -11 -3 -11 -3 -10 -3 -9 -2 -10 -3 -8 0 0zm8 -138l0 -123 55 46 1 3 1 3 1 4 1 4 1 4 1 4 1 4 1 4 1 5 1 5 1 4 2 5 1 5 1 6 2 5 1 6 2 5 1 6 2 6 2 6 1 7 2 6 2 7 2 7 1 7 2 7 2 7 2 7 2 8 2 7 2 8 3 8 -111 35 -2 -8 -2 -8 -2 -8 -2 -7 -2 -8 -2 -7 -2 -7 -2 -7 -2 -7 -1 -7 -2 -6 -2 -7 -1 -6 -2 -6 -2 -6 -1 -6 -2 -5 -1 -6 -2 -5 -1 -6 -1 -5 -2 -5 -1 -4 -1 -5 -1 -5 -1 -4 -1 -4 -1 -4 -1 -4 -1 -4 -1 -4 -1 -3 56 46zm0 -123l44 0 11 46 -55 -46zm-10 0l10 0 0 123 -10 0 -57 -63 57 -60zm-57 60l1 -60 56 0 -57 60zm78 554l-114 -11 0 1 2 -26 2 -25 2 -24 2 -24 1 -23 2 -23 2 -22 2 -22 1 -21 2 -21 1 -20 2 -19 1 -19 1 -18 1 -18 2 -18 1 -16 1 -16 1 -16 1 -15 0 -15 1 -14 1 -13 1 -13 0 -12 1 -12 0 -11 1 -11 0 -10 0 -10 1 -9 0 -8 115 2 -1 10 0 9 0 10 -1 11 0 11 -1 12 0 12 -1 13 0 13 -1 14 -1 14 -1 15 -1 15 -1 16 -1 16 -1 17 -1 18 -1 18 -2 18 -1 19 -1 20 -2 20 -1 21 -2 21 -2 22 -1 22 -2 23 -2 23 -2 24 -2 25 -2 25 -2 25 0 0zm0 0l0 0 0 0 0 0zm-91 649l0 -124 -57 62 0 -12 0 -12 0 -13 0 -13 1 -13 0 -14 0 -15 1 -15 0 -15 1 -16 1 -16 1 -17 0 -17 1 -17 1 -18 1 -19 1 -19 1 -19 2 -20 1 -20 1 -21 2 -21 1 -21 2 -22 1 -23 2 -23 2 -23 2 -24 2 -24 2 -25 2 -25 2 -26 114 11 -2 26 -2 25 -2 24 -2 24 -2 24 -1 23 -2 23 -2 22 -1 22 -2 21 -1 21 -1 20 -2 20 -1 20 -1 19 -1 19 -1 18 -1 17 -1 18 -1 16 -1 17 0 15 -1 16 0 15 -1 14 0 14 -1 14 0 13 0 12 0 12 0 12 0 11 -58 62zm58 -62l0 62 -58 0 58 -62zm-217 -62l159 0 0 124 -159 0 -57 -62 57 -62zm0 124l-57 0 0 -62 57 62zm6 -615l114 16 0 0 -4 33 -4 32 -3 30 -4 30 -3 29 -3 28 -4 27 -3 25 -2 25 -3 24 -3 23 -2 21 -3 21 -2 19 -2 19 -2 17 -2 17 -2 15 -1 15 -2 13 -1 13 -2 11 -1 10 -1 10 -1 8 0 7 -1 6 -1 5 0 4 0 3 0 1 0 -4 -115 0 0 -6 0 -3 1 -4 0 -4 1 -6 0 -6 1 -8 1 -8 1 -9 1 -11 2 -11 1 -13 2 -13 1 -15 2 -15 2 -17 2 -17 2 -19 2 -19 3 -21 2 -22 3 -22 3 -24 3 -25 3 -26 3 -26 3 -28 3 -29 4 -30 3 -31 4 -32 4 -33 0 0zm120 -798l0 123 57 -62 0 14 0 15 0 15 -1 16 0 16 -1 17 -1 18 -1 18 -1 19 -1 19 -1 20 -2 21 -1 21 -2 22 -2 23 -2 23 -2 24 -2 24 -2 25 -3 26 -2 26 -3 27 -3 27 -2 29 -3 28 -4 30 -3 30 -3 31 -4 31 -3 32 -4 32 -4 34 -114 -16 4 -33 4 -32 3 -32 4 -31 3 -31 3 -29 3 -30 3 -28 3 -28 3 -27 3 -27 2 -26 3 -25 2 -25 2 -24 2 -23 2 -23 2 -22 1 -22 2 -20 1 -20 1 -20 1 -19 2 -18 0 -18 1 -16 1 -17 0 -15 1 -15 0 -14 0 -14 0 -13 58 -61zm-58 61l0 -61 58 0 -58 61zm301 62l-243 0 0 -123 243 0 57 61 -57 62zm0 -123l57 0 0 61 -57 -61zm202 585l-108 43 0 0 -9 -27 -9 -27 -9 -26 -8 -25 -8 -25 -8 -23 -7 -24 -7 -22 -7 -22 -7 -22 -6 -21 -6 -20 -6 -20 -5 -18 -6 -19 -4 -18 -5 -17 -4 -16 -4 -16 -4 -15 -3 -15 -4 -14 -3 -14 -2 -13 -3 -13 -2 -12 -1 -11 -2 -11 -1 -11 -1 -10 0 -10 -1 -10 115 0 0 5 1 6 0 6 1 8 1 8 2 9 1 10 2 11 3 11 2 12 3 13 3 14 4 14 3 15 4 16 5 16 4 17 5 18 6 18 5 19 6 19 6 21 7 21 6 21 7 22 8 23 7 24 8 24 8 25 9 25 9 27 9 26 0 0zm93 487l0 124 -57 -62 0 -3 -1 -4 0 -6 -1 -6 -1 -8 -1 -8 -2 -9 -2 -10 -2 -11 -3 -11 -3 -12 -3 -13 -3 -14 -4 -14 -4 -15 -5 -16 -4 -16 -5 -18 -6 -18 -5 -18 -6 -19 -6 -20 -6 -21 -7 -21 -7 -22 -7 -23 -8 -23 -8 -24 -8 -25 -9 -26 -8 -26 -9 -26 108 -43 9 27 9 27 8 25 8 25 8 25 8 24 7 23 8 22 6 22 7 21 6 20 6 20 6 19 5 19 5 17 5 18 5 16 4 16 4 15 4 15 3 14 3 13 3 13 3 12 2 12 2 11 2 11 2 10 1 10 1 9 0 9 1 9 -58 -62zm0 124l-57 0 0 -62 57 62zm10 0l-10 0 0 -124 10 0 57 62 -57 62zm57 -62l0 62 -57 0 57 -62zm56 -553l106 47 0 0 -10 27 -10 26 -10 26 -9 25 -9 24 -8 23 -8 23 -8 22 -8 21 -7 21 -7 20 -7 19 -6 19 -6 18 -5 17 -6 17 -4 15 -5 16 -4 14 -4 14 -4 12 -3 13 -3 11 -2 11 -3 9 -1 9 -2 9 -1 7 -1 6 -1 5 0 4 0 3 -115 0 0 -9 1 -10 1 -9 2 -10 1 -11 2 -10 3 -12 2 -11 3 -13 4 -13 3 -13 4 -14 4 -15 5 -15 5 -16 5 -17 5 -17 6 -18 6 -18 6 -20 7 -20 7 -20 8 -21 7 -22 8 -23 9 -23 8 -23 9 -25 10 -25 9 -26 10 -26 11 -28 0 0zm219 -581l0 123 57 -62 0 10 -1 10 -1 11 -1 10 -2 11 -2 12 -2 12 -3 12 -3 13 -3 14 -3 14 -4 15 -4 15 -5 16 -5 17 -5 17 -5 17 -6 19 -6 19 -7 19 -7 20 -7 21 -7 22 -8 22 -8 22 -8 24 -9 24 -9 24 -9 26 -10 26 -10 26 -10 27 -106 -47 10 -26 10 -27 9 -25 9 -25 9 -24 9 -24 8 -23 8 -22 7 -22 8 -20 7 -21 6 -19 6 -19 6 -18 6 -18 5 -17 5 -16 4 -16 5 -14 3 -15 4 -13 3 -13 3 -12 3 -11 2 -10 2 -10 1 -9 2 -8 0 -7 1 -6 0 -6 0 -4 58 -61zm-58 61l0 -61 58 0 -58 61zm295 62l-237 0 0 -123 237 0 58 61 -58 62zm0 -123l58 0 0 61 -58 -61zm100 797l-114 11 0 0 -3 -33 -3 -33 -2 -31 -2 -31 -3 -31 -2 -30 -2 -29 -2 -29 -2 -28 -2 -27 -2 -27 -1 -26 -2 -25 -2 -25 -1 -24 -1 -24 -2 -23 -1 -22 -1 -22 -1 -21 -1 -20 -1 -20 -1 -20 0 -18 -1 -18 -1 -18 0 -17 0 -16 -1 -15 0 -15 0 -15 0 -14 115 0 0 13 0 14 0 14 0 15 1 16 0 16 1 17 0 18 1 18 1 19 1 19 1 21 1 20 1 22 1 22 1 23 2 23 1 24 2 24 1 26 2 26 2 26 2 27 1 28 2 28 3 30 2 29 2 31 2 31 3 31 2 32 3 33 0 0zm-15 616l0 -124 -57 62 0 1 0 -1 0 -3 -1 -5 0 -5 0 -7 -1 -7 -1 -9 0 -9 -1 -11 -1 -11 -1 -13 -1 -13 -1 -15 -1 -16 -1 -16 -2 -18 -1 -18 -2 -20 -1 -21 -2 -21 -2 -23 -2 -24 -2 -24 -2 -26 -2 -27 -2 -28 -2 -28 -3 -30 -2 -31 -3 -31 -2 -33 114 -11 3 33 2 32 3 30 2 30 2 29 2 28 3 26 2 26 2 25 1 23 2 23 2 22 2 20 1 20 2 19 1 18 1 16 1 16 2 15 1 13 1 13 0 11 1 11 1 10 1 8 0 8 1 7 0 6 0 5 0 4 1 3 0 4 -58 62zm58 -62l0 62 -58 0 58 -62zm1220 -62l195 0 0 124 -195 0 -57 -62 57 -62zm0 124l-57 0 0 -62 57 62zm-116 -417l0 -123 54 41 7 21 7 21 7 21 6 20 7 20 6 19 5 18 6 18 5 17 6 17 5 17 4 15 5 16 4 14 4 14 4 14 4 13 3 13 3 12 3 11 3 11 2 11 3 10 2 10 2 9 1 8 2 9 1 8 1 7 1 8 0 8 1 7 -115 0 0 -1 0 -3 -1 -3 0 -5 -1 -5 -1 -6 -2 -7 -1 -7 -2 -8 -2 -9 -2 -9 -3 -10 -2 -11 -3 -11 -4 -12 -3 -13 -4 -13 -4 -13 -4 -14 -4 -15 -5 -15 -4 -16 -5 -17 -6 -17 -5 -17 -6 -18 -6 -19 -6 -19 -7 -20 -6 -20 -7 -21 -7 -22 54 41zm0 -123l40 0 14 41 -54 -41zm-533 0l533 0 0 123 -533 0 -54 -82 54 -41zm-54 41l13 -41 41 0 -54 41zm-61 499l0 -124 -57 62 0 -8 1 -7 0 -8 1 -8 2 -8 1 -9 2 -9 1 -9 2 -10 3 -10 2 -11 3 -11 3 -11 3 -12 3 -13 4 -13 4 -14 4 -14 4 -15 4 -15 5 -15 5 -17 5 -16 5 -18 6 -17 6 -19 5 -18 7 -20 6 -20 7 -20 7 -21 7 -21 108 41 -7 21 -7 21 -7 20 -6 20 -6 19 -6 18 -5 18 -6 17 -5 17 -5 17 -5 15 -4 15 -5 15 -4 14 -3 14 -4 13 -3 12 -4 12 -2 11 -3 11 -3 10 -2 9 -2 9 -1 9 -2 7 -1 7 -1 6 -1 6 -1 5 0 4 0 2 0 2 -58 62zm58 -62l0 62 -58 0 58 -62zm-244 -62l186 0 0 124 -186 0 -58 -62 58 -62zm0 124l-58 0 0 -62 58 62zm185 -720l106 49 0 0 -15 37 -14 35 -14 35 -13 33 -13 33 -12 31 -12 30 -11 29 -11 28 -11 27 -10 26 -9 24 -9 24 -9 22 -8 21 -8 21 -7 19 -6 18 -7 17 -5 15 -6 15 -4 13 -5 13 -4 11 -3 10 -3 9 -2 7 -2 6 -1 4 0 3 0 -1 0 -6 -115 0 1 -12 2 -8 1 -8 2 -7 3 -9 3 -9 3 -10 4 -11 4 -12 4 -13 5 -14 6 -15 6 -17 6 -17 7 -18 7 -20 8 -20 8 -22 9 -22 9 -24 9 -25 10 -26 11 -27 11 -28 11 -29 12 -30 12 -32 13 -32 14 -34 13 -34 15 -36 14 -37 0 0zm291 -693l0 123 58 -62 -1 11 -1 9 -2 10 -2 9 -2 10 -3 10 -3 12 -4 12 -4 14 -5 14 -5 15 -5 16 -6 17 -7 18 -7 20 -7 20 -8 21 -8 22 -8 24 -10 24 -9 25 -10 27 -11 27 -11 29 -11 29 -12 31 -12 31 -13 33 -14 34 -13 34 -15 36 -14 37 -106 -49 15 -36 14 -36 14 -35 13 -33 13 -33 12 -31 12 -30 11 -30 11 -28 11 -27 10 -26 9 -25 9 -24 9 -23 8 -22 7 -21 7 -20 7 -18 6 -18 6 -17 5 -15 5 -14 4 -13 4 -12 3 -11 3 -10 2 -8 2 -7 1 -6 1 -3 0 -2 0 2 57 -61zm-57 61l0 -61 57 0 -57 61zm272 62l-215 0 0 -123 215 0 57 61 -57 62zm0 -123l57 0 0 61 -57 -61zm280 685l-106 47 0 0 -14 -36 -14 -35 -13 -35 -13 -33 -12 -32 -12 -31 -11 -31 -11 -29 -10 -28 -10 -27 -10 -26 -9 -25 -9 -24 -8 -23 -8 -22 -7 -21 -7 -20 -7 -19 -6 -17 -5 -17 -6 -16 -4 -15 -5 -14 -4 -13 -3 -12 -3 -12 -3 -10 -3 -10 -1 -9 -2 -9 -1 -9 -1 -11 115 0 0 -2 0 2 1 3 1 6 2 7 2 8 2 9 4 11 3 12 4 13 5 14 5 15 5 17 6 17 6 18 7 20 7 20 8 22 8 23 9 23 9 25 9 26 10 27 11 27 10 29 12 30 11 31 13 32 12 33 13 35 14 35 14 36 0 0zm-106 47l0 0 1 3 -1 -3zm280 681l0 -124 -58 62 1 3 -1 -1 0 -3 -1 -6 -2 -6 -2 -8 -3 -10 -3 -10 -4 -12 -4 -13 -4 -14 -5 -15 -6 -16 -5 -17 -7 -18 -7 -20 -7 -20 -8 -22 -8 -22 -8 -24 -9 -24 -10 -26 -10 -27 -10 -28 -11 -28 -11 -30 -12 -31 -12 -32 -13 -33 -13 -34 -13 -36 -14 -36 106 -47 14 36 13 35 13 35 13 33 12 32 12 31 11 30 11 29 11 28 10 27 9 26 10 25 8 24 9 23 7 22 8 20 7 20 6 19 6 18 6 16 5 16 5 15 4 14 4 13 4 12 3 11 3 10 2 9 2 9 2 9 1 9 0 10 -57 62zm57 -62l0 62 -57 0 57 -62zm-628 -1103l0 -123 57 62 0 -6 0 0 1 2 1 5 1 6 2 7 3 8 3 10 3 11 4 12 5 13 5 14 5 16 5 16 7 18 6 18 7 20 7 21 8 22 8 23 9 24 9 25 10 26 10 27 10 29 11 29 11 30 12 32 12 32 12 34 13 35 13 36 -106 46 -13 -36 -13 -35 -13 -34 -12 -32 -12 -32 -11 -31 -11 -29 -10 -29 -10 -27 -10 -26 -9 -25 -9 -25 -8 -23 -8 -22 -7 -21 -7 -20 -7 -19 -6 -18 -6 -17 -5 -15 -5 -15 -5 -14 -4 -13 -4 -11 -3 -11 -3 -10 -3 -9 -2 -8 -2 -8 -1 -7 -2 -8 0 -11 57 61zm0 -123l57 0 0 62 -57 -62zm-10 0l10 0 0 123 -10 0 -57 -61 57 -62zm-57 62l0 -62 57 0 -57 62zm-168 556l0 123 -53 -85 14 -36 14 -35 12 -34 13 -33 12 -32 12 -30 11 -30 10 -28 11 -28 10 -26 9 -25 9 -24 9 -24 8 -21 7 -21 7 -20 7 -19 6 -17 6 -17 6 -15 5 -14 4 -13 4 -12 4 -11 3 -10 3 -8 2 -7 2 -6 1 -4 0 -2 0 0 0 8 114 0 -1 12 -1 7 -2 8 -2 7 -2 8 -2 8 -4 10 -3 10 -4 12 -4 12 -5 14 -5 15 -5 15 -6 17 -7 18 -7 19 -7 20 -8 21 -8 22 -8 23 -9 24 -10 26 -10 26 -10 28 -11 28 -11 30 -12 31 -12 32 -12 33 -13 34 -14 35 -13 36 -54 -85zm0 123l-85 0 32 -85 53 85zm452 0l-452 0 0 -123 452 0 53 39 -53 84zm53 -84l32 84 -85 0 53 -84z"/>
  </g>
 </g>
</svg>
